<!-- Generated by IcoMoon.io -->
<svg version="1.1" xmlns="http://www.w3.org/2000/svg" width="60" height="32" viewBox="0 0 60 32">
<title>group-1</title>
<path fill="#2196f3" d="M9.348 9.318h-0.002c-1.705 0-3.088 1.229-3.088 2.744v0.002c0 1.515 1.382 2.744 3.088 2.744h0.002c1.705 0 3.088-1.229 3.088-2.744v-0.002c0-1.515-1.382-2.744-3.088-2.744z"></path>
<path fill="#2196f3" d="M32.139 8.44c-0.005-2.105-0.948-4.122-2.622-5.611s-3.945-2.327-6.313-2.332v0c-2.369 0.004-4.64 0.842-6.316 2.33s-2.619 3.507-2.624 5.612v0 11.607c0 0 17.873-1.769 17.875-11.606v-0.002z"></path>
<path fill="#2196f3" d="M0 23.857c0.004 1.465 0.661 2.868 1.826 3.904s2.744 1.62 4.392 1.624v0c1.648-0.004 3.226-0.588 4.391-1.623s1.822-2.438 1.827-3.903v0-8.077c0 0-12.436 1.232-12.436 8.075zM6.218 25.304c-0.322 0-0.637-0.085-0.905-0.244s-0.476-0.385-0.6-0.649c-0.123-0.264-0.155-0.555-0.093-0.836s0.218-0.539 0.446-0.741 0.518-0.34 0.834-0.396c0.316-0.056 0.643-0.027 0.941 0.082s0.552 0.295 0.731 0.533c0.179 0.238 0.274 0.518 0.274 0.804 0.001 0.19-0.041 0.379-0.122 0.555s-0.201 0.336-0.353 0.471c-0.151 0.135-0.331 0.242-0.529 0.315s-0.41 0.111-0.625 0.111v-0.005z"></path>
<path fill="#2196f3" d="M18.786 24.508h-1.2v1.24h-0.625v-3.033h1.975v0.506h-1.35v0.783h1.2v0.504zM21.79 24.299c0 0.299-0.053 0.56-0.158 0.785s-0.257 0.399-0.454 0.521c-0.196 0.122-0.421 0.183-0.675 0.183-0.251 0-0.476-0.060-0.673-0.181s-0.35-0.293-0.458-0.517c-0.108-0.225-0.163-0.483-0.165-0.775v-0.15c0-0.299 0.053-0.561 0.16-0.788 0.108-0.228 0.26-0.402 0.456-0.523 0.197-0.122 0.422-0.183 0.675-0.183s0.477 0.061 0.673 0.183c0.197 0.121 0.349 0.295 0.456 0.523 0.108 0.226 0.163 0.488 0.163 0.785v0.135zM21.157 24.162c0-0.318-0.057-0.56-0.171-0.725s-0.276-0.248-0.487-0.248c-0.21 0-0.372 0.082-0.485 0.246-0.114 0.163-0.172 0.401-0.173 0.717v0.148c0 0.31 0.057 0.55 0.171 0.721s0.278 0.256 0.492 0.256c0.21 0 0.371-0.082 0.483-0.246 0.113-0.165 0.169-0.406 0.171-0.721v-0.148zM23.817 24.951c0-0.118-0.042-0.208-0.125-0.271-0.083-0.064-0.233-0.131-0.45-0.2-0.217-0.071-0.388-0.14-0.515-0.208-0.344-0.186-0.517-0.437-0.517-0.752 0-0.164 0.046-0.31 0.137-0.438 0.093-0.129 0.226-0.23 0.398-0.302 0.174-0.072 0.368-0.108 0.583-0.108 0.217 0 0.41 0.040 0.579 0.119 0.169 0.078 0.301 0.188 0.394 0.331 0.094 0.143 0.142 0.306 0.142 0.487h-0.625c0-0.139-0.044-0.246-0.131-0.323-0.087-0.078-0.21-0.117-0.369-0.117-0.153 0-0.272 0.033-0.356 0.098-0.085 0.064-0.127 0.149-0.127 0.254 0 0.099 0.049 0.181 0.148 0.248 0.1 0.067 0.247 0.129 0.44 0.188 0.356 0.107 0.615 0.24 0.777 0.398s0.244 0.356 0.244 0.592c0 0.262-0.099 0.469-0.298 0.619-0.199 0.149-0.466 0.223-0.802 0.223-0.233 0-0.446-0.042-0.637-0.127-0.192-0.086-0.338-0.203-0.44-0.352-0.1-0.149-0.15-0.321-0.15-0.517h0.627c0 0.335 0.2 0.502 0.6 0.502 0.149 0 0.265-0.030 0.348-0.090 0.083-0.061 0.125-0.146 0.125-0.254zM27.153 23.22h-0.929v2.527h-0.625v-2.527h-0.917v-0.506h2.471v0.506zM29.336 24.433h-1.2v0.813h1.408v0.502h-2.033v-3.033h2.029v0.506h-1.404v0.723h1.2v0.49zM31.034 24.637h-0.498v1.11h-0.625v-3.033h1.127c0.358 0 0.635 0.080 0.829 0.24s0.292 0.385 0.292 0.677c0 0.207-0.045 0.38-0.135 0.519-0.089 0.138-0.224 0.247-0.406 0.329l0.656 1.24v0.029h-0.671l-0.569-1.11zM30.536 24.131h0.504c0.157 0 0.278-0.040 0.365-0.119 0.086-0.081 0.129-0.191 0.129-0.331 0-0.143-0.041-0.256-0.123-0.338-0.081-0.082-0.205-0.123-0.373-0.123h-0.502v0.91zM34.323 24.678v1.069h-0.625v-3.033h1.183c0.228 0 0.428 0.042 0.6 0.125 0.174 0.083 0.307 0.202 0.4 0.356 0.093 0.153 0.14 0.327 0.14 0.523 0 0.297-0.102 0.532-0.306 0.704-0.203 0.171-0.484 0.256-0.844 0.256h-0.548zM34.323 24.172h0.558c0.165 0 0.291-0.039 0.377-0.117 0.087-0.078 0.131-0.189 0.131-0.333 0-0.149-0.044-0.269-0.131-0.36s-0.208-0.139-0.363-0.142h-0.573v0.952zM38.278 24.433h-1.2v0.813h1.408v0.502h-2.033v-3.033h2.029v0.506h-1.404v0.723h1.2v0.49zM41.178 23.22h-0.929v2.527h-0.625v-2.527h-0.917v-0.506h2.471v0.506zM43.361 24.433h-1.2v0.813h1.408v0.502h-2.033v-3.033h2.029v0.506h-1.404v0.723h1.2v0.49zM45.059 24.637h-0.498v1.11h-0.625v-3.033h1.127c0.358 0 0.635 0.080 0.829 0.24s0.292 0.385 0.292 0.677c0 0.207-0.045 0.38-0.135 0.519-0.089 0.138-0.224 0.247-0.406 0.329l0.656 1.24v0.029h-0.671l-0.569-1.11zM44.561 24.131h0.504c0.157 0 0.278-0.040 0.365-0.119 0.086-0.081 0.129-0.191 0.129-0.331 0-0.143-0.041-0.256-0.123-0.338-0.081-0.082-0.205-0.123-0.373-0.123h-0.502v0.91zM48.234 24.951c0-0.118-0.042-0.208-0.125-0.271-0.083-0.064-0.233-0.131-0.45-0.2-0.217-0.071-0.388-0.14-0.515-0.208-0.344-0.186-0.517-0.437-0.517-0.752 0-0.164 0.046-0.31 0.138-0.438 0.093-0.129 0.226-0.23 0.398-0.302 0.174-0.072 0.368-0.108 0.583-0.108 0.217 0 0.41 0.040 0.579 0.119 0.169 0.078 0.301 0.188 0.394 0.331 0.094 0.143 0.142 0.306 0.142 0.487h-0.625c0-0.139-0.044-0.246-0.131-0.323-0.088-0.078-0.21-0.117-0.369-0.117-0.153 0-0.272 0.033-0.356 0.098-0.085 0.064-0.127 0.149-0.127 0.254 0 0.099 0.049 0.181 0.148 0.248 0.1 0.067 0.247 0.129 0.44 0.188 0.356 0.107 0.615 0.24 0.777 0.398s0.244 0.356 0.244 0.592c0 0.262-0.099 0.469-0.298 0.619-0.199 0.149-0.466 0.223-0.802 0.223-0.233 0-0.446-0.042-0.638-0.127-0.192-0.086-0.338-0.203-0.44-0.352-0.1-0.149-0.15-0.321-0.15-0.517h0.627c0 0.335 0.2 0.502 0.6 0.502 0.149 0 0.265-0.030 0.348-0.090 0.083-0.061 0.125-0.146 0.125-0.254z"></path>
</svg>
