<svg aria-hidden="true" style="position: absolute; width: 0; height: 0; overflow: hidden;" version="1.1" xmlns="http://www.w3.org/2000/svg" xmlns:xlink="http://www.w3.org/1999/xlink">
<defs>
<symbol id="icon-Object-2" viewBox="0 0 167 80">
<path fill="#afb1b8" style="fill: var(--color1, #afb1b8)" d="M84.311 38.059c-0.788-1.049-1.165-2.288-1.075-3.535v-5.126c0-1.571 0.356-2.765 1.069-3.582s1.937-1.224 3.672-1.22c1.631 0 2.788 0.348 3.473 1.043 0.747 0.887 1.11 1.972 1.027 3.066v1.205h-2.917v-1.22c0.010-0.399-0.018-0.799-0.085-1.194-0.042-0.27-0.189-0.52-0.417-0.709-0.3-0.204-0.677-0.302-1.057-0.276-0.4-0.026-0.796 0.078-1.111 0.292-0.254 0.209-0.423 0.483-0.483 0.782-0.084 0.419-0.122 0.843-0.115 1.267v6.221c-0.046 0.6 0.083 1.201 0.374 1.747 0.145 0.185 0.346 0.331 0.582 0.423s0.496 0.126 0.753 0.098c0.374 0.026 0.745-0.075 1.033-0.282 0.238-0.204 0.391-0.47 0.435-0.756 0.068-0.413 0.099-0.829 0.091-1.246v-1.262h2.917v1.152c0.082 1.141-0.272 2.273-1.009 3.222-0.67 0.761-1.812 1.142-3.491 1.142s-2.947-0.407-3.666-1.252z"></path>
<path fill="#afb1b8" style="fill: var(--color1, #afb1b8)" d="M96.457 38.111c-0.737-0.798-1.105-1.961-1.105-3.499v-5.392c0-1.522 0.368-2.675 1.105-3.457s1.969-1.172 3.696-1.168c1.715 0 2.941 0.389 3.678 1.168 0.737 0.782 1.111 1.935 1.111 3.457v5.392c0 1.523-0.374 2.69-1.123 3.494s-1.969 1.205-3.666 1.205c-1.697 0-2.953-0.407-3.696-1.199zM101.512 36.818c0.264-0.5 0.384-1.047 0.35-1.596v-6.601c0.034-0.538-0.084-1.075-0.344-1.564-0.148-0.189-0.354-0.338-0.596-0.43s-0.508-0.124-0.769-0.092c-0.262-0.031-0.529 0.001-0.771 0.093s-0.45 0.241-0.6 0.429c-0.266 0.488-0.386 1.026-0.35 1.564v6.633c-0.037 0.549 0.084 1.097 0.35 1.596 0.17 0.168 0.38 0.303 0.615 0.395s0.491 0.14 0.75 0.14c0.259 0 0.514-0.048 0.75-0.14s0.445-0.227 0.615-0.395v-0.031z"></path>
<path fill="#afb1b8" style="fill: var(--color1, #afb1b8)" d="M108.451 24.753h3.141l2.361 9.948 2.416-9.948h3.056l0.308 14.359h-2.259l-0.242-9.979-2.331 9.979h-1.812l-2.416-10.016-0.223 10.016h-2.283l0.284-14.359z"></path>
<path fill="#afb1b8" style="fill: var(--color1, #afb1b8)" d="M123.254 24.753h4.892c2.819 0 4.228 1.359 4.228 4.077 0 2.603-1.484 3.903-4.451 3.9h-1.667v6.382h-3.020l0.018-14.359zM127.433 30.89c0.298 0.033 0.601 0.009 0.888-0.069s0.55-0.209 0.773-0.384c0.346-0.485 0.499-1.055 0.435-1.621 0.016-0.438-0.033-0.876-0.145-1.303-0.043-0.143-0.119-0.277-0.222-0.394s-0.233-0.215-0.382-0.289c-0.419-0.174-0.883-0.252-1.347-0.229h-1.172v4.291h1.172z"></path>
<path fill="#afb1b8" style="fill: var(--color1, #afb1b8)" d="M136.728 24.753h3.243l3.328 14.359h-2.814l-0.658-3.311h-2.893l-0.676 3.311h-2.857l3.328-14.359zM139.5 34.138l-1.129-6.027-1.129 6.027h2.259z"></path>
<path fill="#afb1b8" style="fill: var(--color1, #afb1b8)" d="M145.986 24.753h2.114l4.047 8.191v-8.191h2.506v14.359h-2.011l-4.071-8.551v8.551h-2.591l0.006-14.359z"></path>
<path fill="#afb1b8" style="fill: var(--color1, #afb1b8)" d="M160.524 33.637l-3.364-8.864h2.833l2.054 5.694 1.927-5.694h2.772l-3.322 8.864v5.475h-2.899v-5.475z"></path>
<path fill="#afb1b8" style="fill: var(--color1, #afb1b8)" d="M88.974 45.39v0.751h-2.464v5.834h-1.033v-5.834h-2.476v-0.751h5.973z"></path>
<path fill="#afb1b8" style="fill: var(--color1, #afb1b8)" d="M96.698 51.975h-0.797c-0.081 0.004-0.161-0.018-0.223-0.063-0.060-0.038-0.106-0.091-0.133-0.151l-0.713-1.564h-3.418l-0.713 1.564c-0.020 0.065-0.057 0.126-0.109 0.177-0.063 0.044-0.143 0.066-0.223 0.063h-0.797l3.020-6.585h1.051l3.056 6.559zM91.697 49.53h2.851l-1.208-2.68c-0.089-0.203-0.164-0.41-0.223-0.62-0.042 0.125-0.079 0.245-0.115 0.349l-0.109 0.276-1.196 2.675z"></path>
<path fill="#afb1b8" style="fill: var(--color1, #afb1b8)" d="M101.904 51.329c0.189 0.009 0.379 0.009 0.568 0 0.163-0.015 0.325-0.041 0.483-0.078 0.148-0.031 0.293-0.071 0.435-0.12 0.133-0.047 0.266-0.104 0.405-0.162v-1.481h-1.208c-0.030 0.002-0.060-0.002-0.088-0.011s-0.054-0.023-0.075-0.041c-0.020-0.015-0.036-0.033-0.046-0.054s-0.015-0.043-0.014-0.066v-0.506h2.343v2.524c-0.191 0.118-0.393 0.223-0.604 0.313-0.215 0.092-0.44 0.167-0.67 0.224-0.247 0.063-0.5 0.108-0.755 0.136-0.293 0.028-0.587 0.042-0.882 0.042-0.521 0.004-1.038-0.079-1.522-0.245-0.452-0.157-0.863-0.391-1.208-0.688-0.336-0.3-0.601-0.655-0.779-1.043-0.19-0.437-0.285-0.9-0.278-1.366-0.006-0.469 0.086-0.936 0.272-1.377 0.174-0.39 0.439-0.745 0.779-1.043 0.345-0.296 0.756-0.529 1.208-0.683 0.517-0.168 1.066-0.251 1.619-0.245 0.281-0 0.562 0.019 0.839 0.057 0.246 0.034 0.486 0.090 0.719 0.167 0.211 0.068 0.414 0.156 0.604 0.261 0.185 0.103 0.361 0.218 0.526 0.344l-0.29 0.407c-0.023 0.037-0.057 0.068-0.098 0.090s-0.089 0.034-0.138 0.035c-0.067-0.002-0.132-0.020-0.187-0.052-0.091-0.042-0.187-0.094-0.296-0.156-0.128-0.070-0.264-0.129-0.405-0.177-0.18-0.062-0.366-0.111-0.556-0.146-0.253-0.040-0.51-0.059-0.767-0.057-0.398-0.004-0.794 0.058-1.166 0.182-0.336 0.116-0.639 0.294-0.888 0.521-0.25 0.237-0.442 0.516-0.562 0.819-0.27 0.713-0.27 1.482 0 2.195 0.132 0.31 0.338 0.592 0.604 0.829 0.248 0.226 0.548 0.404 0.882 0.521 0.384 0.114 0.791 0.158 1.196 0.13z"></path>
<path fill="#afb1b8" style="fill: var(--color1, #afb1b8)" d="M111.531 51.224h3.298v0.751h-4.306v-6.585h1.033l-0.024 5.835z"></path>
<path fill="#afb1b8" style="fill: var(--color1, #afb1b8)" d="M118.259 51.975h-1.033v-6.585h1.033v6.585z"></path>
<path fill="#afb1b8" style="fill: var(--color1, #afb1b8)" d="M122.1 45.421c0.061 0.030 0.115 0.071 0.157 0.12l4.415 4.964c-0.006-0.078-0.006-0.156 0-0.235 0-0.073 0-0.146 0-0.214v-4.693h0.9v6.612h-0.519c-0.077 0.005-0.154-0.007-0.223-0.037-0.063-0.033-0.118-0.075-0.163-0.125l-4.409-4.959c0 0.078 0 0.151 0 0.224s0 0.141 0 0.203v4.693h-0.864v-6.586h0.538c0.058 0 0.116 0.011 0.169 0.031z"></path>
<path fill="#afb1b8" style="fill: var(--color1, #afb1b8)" d="M135.176 45.39v0.725h-3.66v2.174h2.965v0.699h-2.965v2.247h3.66v0.725h-4.723v-6.57h4.723z"></path>
<path fill="#afb1b8" style="fill: var(--color1, #afb1b8)" d="M26.954 4.721l45.858 11.241v39.392l-45.858-11.236v-39.397zM24.013 1.363v44.669l51.734 12.686v-44.663l-51.734-12.691z"></path>
<path fill="#afb1b8" style="fill: var(--color1, #afb1b8)" d="M51.74 79.453l-51.74-12.696v-44.664l51.74 12.691v44.669z"></path>
<path fill="#afb1b8" style="fill: var(--color1, #afb1b8)" d="M24.871 4.215l45.26 11.1-19.248 16.622-45.266-11.106 19.254-16.617zM24.013 1.363l-24.013 20.731 51.74 12.691 24.007-20.731-51.734-12.691z"></path>
<path fill="#afb1b8" style="fill: var(--color1, #afb1b8)" d="M54.651 76.94l21.096-18.217-21.096-5.177v23.395z"></path>
</symbol>
<symbol id="icon-Object-1" viewBox="0 0 86 80">
<path fill="#afb1b8" style="fill: var(--color1, #afb1b8)" d="M14.107 78.288c0.030 0.001 0.060 0.007 0.088 0.018s0.053 0.026 0.073 0.046l0.415 0.397c-0.323 0.321-0.721 0.578-1.168 0.754-0.524 0.191-1.089 0.283-1.657 0.271-0.534 0.010-1.064-0.076-1.558-0.253-0.445-0.162-0.846-0.405-1.174-0.713-0.335-0.319-0.593-0.694-0.758-1.101-0.181-0.454-0.271-0.932-0.265-1.413-0.007-0.484 0.090-0.964 0.286-1.417 0.181-0.41 0.455-0.784 0.805-1.101 0.355-0.311 0.779-0.555 1.246-0.718 0.511-0.172 1.056-0.258 1.605-0.253 0.51-0.011 1.016 0.067 1.49 0.23 0.411 0.155 0.789 0.37 1.117 0.636l-0.348 0.424c-0.024 0.030-0.054 0.056-0.088 0.077-0.041 0.024-0.091 0.036-0.14 0.032-0.054-0.003-0.106-0.019-0.151-0.045l-0.187-0.113-0.26-0.144c-0.112-0.054-0.228-0.1-0.348-0.14-0.154-0.048-0.312-0.086-0.473-0.113-0.204-0.033-0.411-0.048-0.618-0.045-0.395-0.004-0.787 0.060-1.153 0.19-0.341 0.12-0.649 0.301-0.904 0.532-0.259 0.246-0.459 0.534-0.587 0.849-0.146 0.359-0.218 0.738-0.213 1.119-0.006 0.387 0.066 0.772 0.213 1.137 0.127 0.311 0.323 0.598 0.576 0.844 0.238 0.229 0.533 0.408 0.862 0.524 0.339 0.122 0.703 0.183 1.070 0.18 0.212 0.003 0.424-0.009 0.634-0.036 0.342-0.036 0.671-0.14 0.961-0.302 0.145-0.083 0.283-0.177 0.41-0.28 0.053-0.044 0.124-0.070 0.197-0.072v0z"></path>
<path fill="#afb1b8" style="fill: var(--color1, #afb1b8)" d="M26.103 76.293c0.006 0.479-0.089 0.954-0.28 1.403-0.169 0.407-0.436 0.778-0.782 1.090s-0.765 0.555-1.227 0.715c-1.017 0.337-2.141 0.337-3.158 0-0.46-0.163-0.875-0.407-1.22-0.718-0.346-0.317-0.615-0.691-0.789-1.101-0.374-0.909-0.374-1.903 0-2.811 0.177-0.41 0.445-0.786 0.789-1.106 0.348-0.3 0.763-0.535 1.22-0.69 1.015-0.343 2.142-0.343 3.158 0 0.461 0.163 0.879 0.407 1.226 0.717 0.342 0.314 0.608 0.683 0.784 1.087 0.192 0.452 0.287 0.931 0.28 1.412zM25.013 76.293c0.008-0.383-0.059-0.764-0.197-1.128-0.116-0.311-0.306-0.599-0.556-0.844-0.243-0.232-0.543-0.414-0.878-0.532-0.739-0.247-1.557-0.247-2.295 0-0.334 0.119-0.634 0.301-0.878 0.532-0.254 0.244-0.445 0.531-0.561 0.844-0.264 0.735-0.264 1.522 0 2.256 0.117 0.312 0.308 0.6 0.561 0.844 0.244 0.23 0.544 0.411 0.878 0.528 0.74 0.24 1.555 0.24 2.295 0 0.334-0.117 0.634-0.297 0.877-0.528 0.249-0.246 0.438-0.533 0.556-0.844 0.139-0.364 0.206-0.745 0.197-1.128v0z"></path>
<path fill="#afb1b8" style="fill: var(--color1, #afb1b8)" d="M34.288 77.476l0.109 0.253c0.042-0.090 0.078-0.172 0.119-0.253 0.040-0.085 0.085-0.168 0.135-0.248l2.654-4.192c0.052-0.072 0.099-0.117 0.151-0.131 0.071-0.019 0.144-0.026 0.218-0.022h0.784v6.817h-0.93v-5.013c0-0.063 0-0.135 0-0.212-0.005-0.078-0.005-0.157 0-0.235l-2.669 4.25c-0.034 0.064-0.088 0.117-0.156 0.155s-0.147 0.057-0.228 0.057h-0.151c-0.081 0.001-0.16-0.018-0.229-0.056s-0.122-0.092-0.156-0.156l-2.747-4.277c0 0.081 0 0.163 0 0.244s0 0.153 0 0.217v5.013h-0.898v-6.804h0.784c0.074-0.004 0.147 0.004 0.218 0.022 0.064 0.028 0.116 0.074 0.146 0.131l2.711 4.196c0.053 0.078 0.098 0.159 0.135 0.244v0z"></path>
<path fill="#afb1b8" style="fill: var(--color1, #afb1b8)" d="M44.275 77.137v2.554h-1.039v-6.808h2.316c0.437-0.007 0.873 0.043 1.293 0.149 0.336 0.083 0.648 0.227 0.914 0.424 0.231 0.184 0.409 0.413 0.519 0.668 0.123 0.278 0.183 0.573 0.177 0.871 0.005 0.299-0.061 0.595-0.192 0.871-0.125 0.261-0.317 0.494-0.561 0.681-0.266 0.205-0.58 0.359-0.919 0.451-0.404 0.112-0.827 0.166-1.252 0.158l-1.257-0.018zM44.275 76.406h1.257c0.273 0.003 0.545-0.032 0.805-0.104 0.215-0.063 0.412-0.163 0.582-0.293 0.156-0.125 0.277-0.279 0.353-0.451 0.085-0.182 0.127-0.377 0.125-0.573 0.012-0.189-0.023-0.378-0.104-0.555s-0.205-0.335-0.363-0.465c-0.397-0.269-0.895-0.4-1.397-0.366h-1.257v2.806z"></path>
<path fill="#afb1b8" style="fill: var(--color1, #afb1b8)" d="M58.234 79.7h-0.821c-0.082 0.003-0.163-0.020-0.228-0.063-0.059-0.042-0.105-0.097-0.135-0.158l-0.706-1.647h-3.547l-0.732 1.647c-0.027 0.060-0.072 0.113-0.13 0.154-0.066 0.046-0.149 0.070-0.234 0.068h-0.821l3.116-6.818h1.080l3.157 6.818zM53.093 77.168h2.929l-1.236-2.775c-0.094-0.209-0.172-0.423-0.234-0.641l-0.12 0.357c-0.036 0.108-0.078 0.208-0.114 0.289l-1.226 2.771z"></path>
<path fill="#afb1b8" style="fill: var(--color1, #afb1b8)" d="M62.721 72.913c0.062 0.030 0.115 0.071 0.156 0.122l4.544 5.14c0-0.081 0-0.162 0-0.239s0-0.153 0-0.226v-4.828h0.93v6.818h-0.519c-0.074 0.002-0.147-0.012-0.213-0.041-0.064-0.033-0.121-0.075-0.166-0.126l-4.539-5.135c0.005 0.078 0.005 0.156 0 0.235 0 0.077 0 0.144 0 0.207v4.86h-0.93v-6.818h0.55c0.064-0.002 0.128 0.009 0.187 0.032v0z"></path>
<path fill="#afb1b8" style="fill: var(--color1, #afb1b8)" d="M76.006 76.988v2.707h-1.039v-2.707l-2.872-4.106h0.93c0.080-0.004 0.159 0.017 0.223 0.058 0.056 0.044 0.104 0.096 0.14 0.154l1.797 2.649c0.073 0.113 0.135 0.217 0.187 0.316s0.094 0.194 0.13 0.289l0.135-0.293c0.050-0.107 0.11-0.211 0.177-0.311l1.771-2.667c0.037-0.053 0.083-0.102 0.135-0.144 0.062-0.047 0.142-0.071 0.223-0.068h0.94l-2.877 4.124z"></path>
<path fill="#afb1b8" style="fill: var(--color1, #afb1b8)" d="M33.774 61.44c0.452 0.050 0.909 0.090 1.371 0.126 7.007-2.724 12.935-7.181 17.043-12.816s6.213-12.196 6.052-18.864l-7.722-6.71c1.57 7.1 0.836 14.439-2.121 21.196s-8.020 12.667-14.622 17.067v0z"></path>
<path fill="#afb1b8" style="fill: var(--color1, #afb1b8)" d="M31.016 61.128l0.208 0.036c7.055-4.384 12.434-10.507 15.441-17.576s3.504-14.759 1.427-22.076l-10.999-9.556c4.449 7.855 6.24 16.647 5.164 25.351s-4.973 16.965-11.24 23.821v0z"></path>
<path fill="#afb1b8" style="fill: var(--color1, #afb1b8)" d="M68.32 37.765c-1.869 7.327-6.407 13.935-12.942 18.843-1.908 1.441-3.967 2.725-6.149 3.835 5.321-1.359 10.212-3.761 14.295-7.022s7.25-7.293 9.257-11.785l-4.461-3.871z"></path>
<path fill="#afb1b8" style="fill: var(--color1, #afb1b8)" d="M66.57 36.686l-6.351-5.518c-0.122 6.292-2.18 12.44-5.962 17.807s-9.149 9.755-15.543 12.709h0.031c1.425-0 2.849-0.074 4.264-0.221 5.976-2.119 11.255-5.491 15.366-9.814s6.927-9.463 8.195-14.962v0z"></path>
<path fill="#afb1b8" style="fill: var(--color1, #afb1b8)" d="M31.936 7.926l-7.577-6.592c-6.774 2.274-12.599 6.272-16.714 11.471s-6.328 11.355-6.349 17.665v0c0.025 6.972 2.726 13.737 7.675 19.225s11.862 9.385 19.647 11.075c6.949-7.356 11.018-16.446 11.615-25.949s-2.309-18.924-8.296-26.893v0z"></path>
<path fill="#afb1b8" style="fill: var(--color1, #afb1b8)" d="M84.076 35.671c-0.027-8.271-3.821-16.197-10.553-22.046s-15.854-9.145-25.374-9.169v0c-4.399-0.004-8.761 0.701-12.864 2.080l46.392 40.307c1.588-3.563 2.402-7.351 2.399-11.172v0z"></path>
</symbol>
<symbol id="icon-envelope-hover" viewBox="0 0 107 80">
<path fill="#2196f3" style="fill: var(--color2, #2196f3)" d="M96.667 0h-86.667c-5.514 0-10 4.486-10 10v60c0 5.514 4.486 10 10 10h86.667c5.514 0 10-4.486 10-10v-60c0-5.514-4.486-10-10-10zM96.667 6.667c0.453 0 0.883 0.094 1.277 0.258l-44.611 38.665-44.611-38.665c0.394-0.164 0.825-0.258 1.278-0.258h86.667zM96.667 73.333h-86.667c-1.839 0-3.333-1.494-3.333-3.333v-56.032l44.482 38.551c0.628 0.543 1.406 0.814 2.184 0.814s1.556-0.27 2.184-0.814l44.482-38.551v56.032c0 1.839-1.494 3.333-3.333 3.333z"></path>
</symbol>
<symbol id="icon-Vector" viewBox="0 0 50 80">
<path fill="#757575" style="fill: var(--color3, #757575)" d="M42.5 0h-35c-4.136 0-7.5 3.364-7.5 7.5v65c0 4.136 3.364 7.5 7.5 7.5h35c4.136 0 7.5-3.364 7.5-7.5v-65c0-4.136-3.364-7.5-7.5-7.5zM7.5 5h35c1.379 0 2.5 1.121 2.5 2.5v52.5h-40v-52.5c0-1.379 1.121-2.5 2.5-2.5zM42.5 75h-35c-1.379 0-2.5-1.12-2.5-2.5v-7.5h40v7.5c0 1.38-1.121 2.5-2.5 2.5z"></path>
</symbol>
<symbol id="icon-group-1" viewBox="0 0 107 80">
<path fill="#afb1b8" style="fill: var(--color1, #afb1b8)" d="M8.097 65.932c0.415 0.47 0.636 1.059 0.624 1.663 0.021 0.394-0.055 0.788-0.222 1.151s-0.422 0.688-0.745 0.949c-0.806 0.557-1.804 0.829-2.811 0.767h-4.942v-10.539h4.841c0.956-0.058 1.904 0.189 2.682 0.7 0.313 0.24 0.56 0.542 0.723 0.885s0.237 0.714 0.216 1.087c0.028 0.581-0.171 1.153-0.562 1.611-0.376 0.419-0.895 0.709-1.473 0.824 0.656 0.11 1.248 0.429 1.67 0.901zM2.3 64.341h2.069c0.47 0.032 0.937-0.092 1.316-0.35 0.155-0.129 0.276-0.289 0.353-0.467s0.108-0.371 0.091-0.562c0.015-0.191-0.017-0.382-0.093-0.56s-0.194-0.338-0.346-0.47c-0.39-0.265-0.871-0.391-1.355-0.355h-2.035v2.765zM5.887 68.383c0.166-0.132 0.297-0.297 0.381-0.483s0.122-0.387 0.108-0.588c0.013-0.203-0.026-0.406-0.113-0.594s-0.219-0.354-0.388-0.487c-0.405-0.275-0.903-0.41-1.406-0.381h-2.17v2.899h2.199c0.495 0.026 0.985-0.103 1.389-0.365z"></path>
<path fill="#afb1b8" style="fill: var(--color1, #afb1b8)" d="M17.993 70.463l-2.693-4.119h-1.012v4.119h-2.317v-10.539h4.386c1.106-0.071 2.198 0.25 3.053 0.896 0.613 0.572 0.983 1.326 1.043 2.125s-0.194 1.592-0.716 2.236c-0.541 0.567-1.28 0.946-2.092 1.071l2.868 4.211h-2.519zM14.288 64.908h1.895c1.316 0 1.974-0.532 1.974-1.596 0.013-0.217-0.023-0.435-0.106-0.639s-0.212-0.39-0.378-0.546c-0.416-0.317-0.951-0.47-1.49-0.427h-1.917l0.023 3.207z"></path>
<path fill="#afb1b8" style="fill: var(--color1, #afb1b8)" d="M30.656 68.341h-4.616l-0.815 2.121h-2.429l4.24-10.42h2.626l4.223 10.42h-2.429l-0.798-2.121zM30.037 66.746l-1.687-4.448-1.687 4.448h3.374z"></path>
<path fill="#afb1b8" style="fill: var(--color1, #afb1b8)" d="M46.506 70.463h-2.3l-5.156-7.166v7.166h-2.294v-10.539h2.294l5.156 7.208v-7.208h2.3v10.539z"></path>
<path fill="#afb1b8" style="fill: var(--color1, #afb1b8)" d="M59.63 67.94c-0.476 0.796-1.2 1.443-2.081 1.859-1.001 0.463-2.112 0.691-3.233 0.664h-4.093v-10.539h4.093c1.119-0.027 2.229 0.196 3.233 0.649 0.88 0.406 1.606 1.047 2.081 1.838 0.473 0.857 0.72 1.804 0.72 2.765s-0.247 1.908-0.72 2.765zM56.998 67.688c0.656-0.7 1.017-1.592 1.017-2.515s-0.361-1.815-1.017-2.515c-0.793-0.634-1.828-0.956-2.879-0.896h-1.597v6.822h1.597c1.051 0.060 2.086-0.262 2.879-0.896z"></path>
<path fill="#afb1b8" style="fill: var(--color1, #afb1b8)" d="M32.095 1.305c0 0 29.683 10.261 29.053 25.109v25.114c0 0-29.66-10.266-29.042-25.114l-0.011-25.109z"></path>
<path fill="#afb1b8" style="fill: var(--color1, #afb1b8)" d="M87.592 45.648c5.606-3.532 12.090-5.72 18.859-6.363v-7.862c-7.799 2.752-14.415 7.743-18.859 14.225z"></path>
<path fill="#afb1b8" style="fill: var(--color1, #afb1b8)" d="M84.224 48.016c4.588-8.459 12.543-14.987 22.227-18.241v-22.653c0 0-37.425 19.749-36.531 40.893l-9.494 30.622c0 0 6.531-0.654 9.494-1.879 0-1.143 0-2.296 0.135-3.454 0.875-9.816 5.972-18.912 14.169-25.289z"></path>
<path fill="#afb1b8" style="fill: var(--color1, #afb1b8)" d="M80.204 61.299c0.222-2.48 0.718-4.933 1.479-7.321-5.105 5.507-8.196 12.339-8.839 19.538-0.062 0.68-0.096 1.359-0.112 2.059 2.401-1.055 5.195-2.373 8.131-3.923-0.749-3.406-0.971-6.891-0.658-10.353z"></path>
<path fill="#afb1b8" style="fill: var(--color1, #afb1b8)" d="M81.885 61.428c-0.282 3.132-0.106 6.285 0.523 9.375 11.549-6.327 24.527-16.104 24.026-27.919v-1.030c-8.251 0.845-15.972 4.148-21.974 9.401-1.405 3.255-2.273 6.684-2.575 10.173z"></path>
</symbol>
<symbol id="icon-group" viewBox="0 0 151 80">
<path fill="#2196f3" style="fill: var(--color2, #2196f3)" d="M23.371 23.294h-0.005c-4.263 0-7.719 3.071-7.719 6.86v0.004c0 3.789 3.456 6.86 7.719 6.86h0.005c4.263 0 7.719-3.071 7.719-6.86v-0.004c0-3.789-3.456-6.86-7.719-6.86z"></path>
<path fill="#2196f3" style="fill: var(--color2, #2196f3)" d="M80.347 21.101c-0.012-5.262-2.369-10.306-6.556-14.027s-9.861-5.817-15.783-5.829v0c-5.923 0.010-11.6 2.105-15.789 5.826s-6.547 8.767-6.559 14.030v29.018c0 0 44.682-4.423 44.687-29.014v-0.004z"></path>
<path fill="#2196f3" style="fill: var(--color2, #2196f3)" d="M0 59.644c0.011 3.661 1.652 7.17 4.565 9.76s6.861 4.049 10.981 4.060c4.119-0.011 8.066-1.47 10.979-4.058s4.554-6.096 4.567-9.757v-20.191c0 0-31.090 3.080-31.090 20.187zM15.545 63.261c-0.805 0-1.592-0.212-2.262-0.61s-1.191-0.963-1.499-1.624c-0.308-0.661-0.389-1.388-0.232-2.090s0.545-1.346 1.114-1.852 1.295-0.85 2.084-0.99c0.79-0.14 1.608-0.068 2.352 0.206s1.38 0.738 1.827 1.332c0.447 0.595 0.686 1.294 0.686 2.010 0.002 0.476-0.102 0.948-0.305 1.389s-0.503 0.841-0.881 1.178c-0.378 0.337-0.828 0.605-1.323 0.788s-1.025 0.277-1.561 0.277v-0.014z"></path>
<path fill="#2196f3" style="fill: var(--color2, #2196f3)" d="M46.965 61.269h-3v3.099h-1.563v-7.583h4.937v1.266h-3.375v1.958h3v1.26zM54.475 60.748c0 0.746-0.132 1.401-0.396 1.964s-0.642 0.996-1.135 1.302c-0.489 0.306-1.052 0.458-1.688 0.458-0.628 0-1.189-0.151-1.682-0.453s-0.875-0.733-1.146-1.292c-0.271-0.563-0.408-1.208-0.411-1.938v-0.375c0-0.746 0.134-1.403 0.401-1.969 0.271-0.57 0.651-1.005 1.141-1.307 0.493-0.306 1.056-0.458 1.688-0.458s1.193 0.153 1.682 0.458c0.493 0.302 0.873 0.738 1.141 1.307 0.271 0.566 0.406 1.22 0.406 1.963v0.339zM52.892 60.404c0-0.795-0.142-1.399-0.427-1.812s-0.691-0.62-1.219-0.62c-0.524 0-0.929 0.205-1.214 0.615-0.285 0.406-0.429 1.003-0.432 1.792v0.37c0 0.774 0.142 1.375 0.427 1.802s0.694 0.641 1.229 0.641c0.524 0 0.927-0.205 1.208-0.615 0.281-0.413 0.424-1.014 0.427-1.802v-0.37zM59.543 62.378c0-0.295-0.104-0.521-0.313-0.677-0.208-0.16-0.583-0.326-1.125-0.5-0.542-0.177-0.97-0.351-1.287-0.521-0.861-0.465-1.292-1.092-1.292-1.88 0-0.41 0.114-0.774 0.344-1.094 0.233-0.323 0.564-0.575 0.995-0.755 0.434-0.18 0.92-0.271 1.458-0.271 0.542 0 1.024 0.099 1.448 0.297 0.423 0.194 0.752 0.47 0.984 0.828 0.236 0.358 0.354 0.764 0.354 1.219h-1.563c0-0.347-0.109-0.616-0.328-0.807-0.219-0.194-0.526-0.292-0.922-0.292-0.382 0-0.679 0.082-0.891 0.245-0.212 0.16-0.318 0.372-0.318 0.635 0 0.247 0.123 0.453 0.37 0.62 0.25 0.167 0.616 0.323 1.099 0.469 0.889 0.267 1.537 0.599 1.943 0.995s0.609 0.889 0.609 1.479c0 0.656-0.248 1.172-0.745 1.547-0.496 0.372-1.165 0.557-2.005 0.557-0.583 0-1.114-0.106-1.594-0.318-0.479-0.215-0.846-0.509-1.099-0.88-0.25-0.372-0.375-0.802-0.375-1.292h1.568c0 0.837 0.5 1.255 1.5 1.255 0.372 0 0.661-0.075 0.87-0.224 0.208-0.153 0.313-0.365 0.313-0.635zM67.881 58.050h-2.323v6.318h-1.563v-6.318h-2.292v-1.266h6.177v1.266zM73.34 61.081h-3v2.031h3.521v1.255h-5.083v-7.583h5.073v1.266h-3.51v1.807h3v1.224zM77.585 61.592h-1.245v2.776h-1.563v-7.583h2.818c0.896 0 1.587 0.2 2.073 0.599s0.729 0.964 0.729 1.693c0 0.518-0.113 0.95-0.339 1.297-0.222 0.344-0.561 0.618-1.016 0.823l1.641 3.099v0.073h-1.677l-1.422-2.776zM76.34 60.326h1.26c0.392 0 0.696-0.099 0.911-0.297 0.215-0.201 0.323-0.477 0.323-0.828 0-0.358-0.102-0.639-0.307-0.844-0.201-0.205-0.512-0.307-0.932-0.307h-1.255v2.276zM85.809 61.696v2.672h-1.563v-7.583h2.958c0.569 0 1.070 0.104 1.5 0.313 0.434 0.208 0.767 0.505 1 0.89 0.233 0.382 0.349 0.818 0.349 1.307 0 0.743-0.255 1.33-0.766 1.76-0.507 0.427-1.21 0.641-2.109 0.641h-1.37zM85.809 60.43h1.396c0.413 0 0.727-0.097 0.943-0.292 0.219-0.194 0.328-0.472 0.328-0.833 0-0.372-0.11-0.672-0.328-0.901s-0.521-0.347-0.906-0.354h-1.432v2.38zM95.694 61.081h-3v2.031h3.521v1.255h-5.083v-7.583h5.073v1.266h-3.51v1.807h3v1.224zM102.944 58.050h-2.323v6.318h-1.563v-6.318h-2.292v-1.266h6.177v1.266zM108.402 61.081h-3v2.031h3.521v1.255h-5.083v-7.583h5.073v1.266h-3.51v1.807h3v1.224zM112.647 61.592h-1.245v2.776h-1.563v-7.583h2.818c0.896 0 1.587 0.2 2.073 0.599s0.729 0.964 0.729 1.693c0 0.518-0.113 0.95-0.339 1.297-0.222 0.344-0.561 0.618-1.016 0.823l1.641 3.099v0.073h-1.677l-1.422-2.776zM111.402 60.326h1.26c0.392 0 0.696-0.099 0.911-0.297 0.215-0.201 0.323-0.477 0.323-0.828 0-0.358-0.102-0.639-0.307-0.844-0.201-0.205-0.512-0.307-0.932-0.307h-1.255v2.276zM120.585 62.378c0-0.295-0.104-0.521-0.313-0.677-0.208-0.16-0.583-0.326-1.125-0.5-0.542-0.177-0.97-0.351-1.286-0.521-0.861-0.465-1.292-1.092-1.292-1.88 0-0.41 0.115-0.774 0.344-1.094 0.233-0.323 0.564-0.575 0.995-0.755 0.434-0.18 0.92-0.271 1.458-0.271 0.542 0 1.024 0.099 1.448 0.297 0.424 0.194 0.752 0.47 0.984 0.828 0.236 0.358 0.354 0.764 0.354 1.219h-1.563c0-0.347-0.109-0.616-0.328-0.807-0.219-0.194-0.526-0.292-0.922-0.292-0.382 0-0.679 0.082-0.891 0.245-0.212 0.16-0.318 0.372-0.318 0.635 0 0.247 0.123 0.453 0.37 0.62 0.25 0.167 0.616 0.323 1.099 0.469 0.889 0.267 1.536 0.599 1.943 0.995s0.609 0.889 0.609 1.479c0 0.656-0.248 1.172-0.745 1.547-0.497 0.372-1.165 0.557-2.005 0.557-0.583 0-1.115-0.106-1.594-0.318-0.479-0.215-0.846-0.509-1.099-0.88-0.25-0.372-0.375-0.802-0.375-1.292h1.568c0 0.837 0.5 1.255 1.5 1.255 0.371 0 0.661-0.075 0.87-0.224 0.208-0.153 0.313-0.365 0.313-0.635z"></path>
</symbol>
<symbol id="icon-Object" viewBox="0 0 86 80">
<path fill="#afb1b8" style="fill: var(--color1, #afb1b8)" d="M14.107 78.288c0.030 0.001 0.060 0.007 0.088 0.018s0.053 0.026 0.073 0.046l0.415 0.397c-0.323 0.321-0.721 0.578-1.168 0.754-0.524 0.191-1.089 0.283-1.657 0.271-0.534 0.010-1.064-0.076-1.558-0.253-0.445-0.162-0.846-0.405-1.174-0.713-0.335-0.319-0.593-0.694-0.758-1.101-0.181-0.454-0.271-0.932-0.265-1.413-0.007-0.484 0.090-0.964 0.286-1.417 0.181-0.41 0.455-0.784 0.805-1.101 0.355-0.311 0.779-0.555 1.246-0.718 0.511-0.172 1.056-0.258 1.605-0.253 0.51-0.011 1.016 0.067 1.49 0.23 0.411 0.155 0.789 0.37 1.117 0.636l-0.348 0.424c-0.024 0.030-0.054 0.056-0.088 0.077-0.041 0.024-0.091 0.036-0.14 0.032-0.054-0.003-0.106-0.019-0.151-0.045l-0.187-0.113-0.26-0.144c-0.112-0.054-0.228-0.1-0.348-0.14-0.154-0.048-0.312-0.086-0.473-0.113-0.204-0.033-0.411-0.048-0.618-0.045-0.395-0.004-0.787 0.060-1.153 0.19-0.341 0.12-0.649 0.301-0.904 0.532-0.259 0.246-0.459 0.534-0.587 0.849-0.146 0.359-0.218 0.738-0.213 1.119-0.006 0.387 0.066 0.772 0.213 1.137 0.127 0.311 0.323 0.598 0.576 0.844 0.238 0.229 0.533 0.408 0.862 0.524 0.339 0.122 0.703 0.183 1.070 0.18 0.212 0.003 0.424-0.009 0.634-0.036 0.342-0.036 0.671-0.14 0.961-0.302 0.145-0.083 0.283-0.177 0.41-0.28 0.053-0.044 0.124-0.070 0.197-0.072z"></path>
<path fill="#afb1b8" style="fill: var(--color1, #afb1b8)" d="M26.103 76.293c0.006 0.479-0.089 0.954-0.28 1.403-0.169 0.407-0.436 0.778-0.782 1.090s-0.765 0.555-1.227 0.715c-1.017 0.337-2.141 0.337-3.158 0-0.46-0.163-0.875-0.407-1.22-0.718-0.346-0.317-0.615-0.691-0.789-1.101-0.374-0.909-0.374-1.903 0-2.811 0.177-0.41 0.445-0.786 0.789-1.106 0.348-0.3 0.763-0.535 1.22-0.69 1.015-0.343 2.142-0.343 3.158 0 0.461 0.163 0.879 0.407 1.226 0.717 0.342 0.314 0.608 0.683 0.784 1.087 0.192 0.452 0.287 0.931 0.28 1.412zM25.013 76.293c0.008-0.383-0.059-0.764-0.197-1.128-0.116-0.311-0.306-0.599-0.556-0.844-0.243-0.232-0.543-0.414-0.878-0.532-0.739-0.247-1.557-0.247-2.295 0-0.334 0.119-0.634 0.301-0.878 0.532-0.254 0.244-0.445 0.531-0.561 0.844-0.264 0.735-0.264 1.522 0 2.256 0.117 0.312 0.308 0.6 0.561 0.844 0.244 0.23 0.544 0.411 0.878 0.528 0.74 0.24 1.555 0.24 2.295 0 0.334-0.117 0.634-0.297 0.877-0.528 0.249-0.246 0.438-0.533 0.556-0.844 0.139-0.364 0.206-0.745 0.197-1.128z"></path>
<path fill="#afb1b8" style="fill: var(--color1, #afb1b8)" d="M34.288 77.476l0.109 0.253c0.042-0.090 0.078-0.172 0.119-0.253 0.040-0.085 0.085-0.168 0.135-0.248l2.654-4.192c0.052-0.072 0.099-0.117 0.151-0.131 0.071-0.019 0.144-0.026 0.218-0.022h0.784v6.817h-0.93v-5.013c0-0.063 0-0.135 0-0.212-0.005-0.078-0.005-0.157 0-0.235l-2.669 4.25c-0.034 0.064-0.088 0.117-0.156 0.155s-0.147 0.057-0.228 0.057h-0.151c-0.081 0.001-0.16-0.018-0.229-0.056s-0.122-0.092-0.156-0.156l-2.747-4.277c0 0.081 0 0.163 0 0.244s0 0.153 0 0.217v5.013h-0.898v-6.804h0.784c0.074-0.004 0.147 0.004 0.218 0.022 0.064 0.028 0.116 0.074 0.146 0.131l2.711 4.196c0.053 0.078 0.098 0.159 0.135 0.244z"></path>
<path fill="#afb1b8" style="fill: var(--color1, #afb1b8)" d="M44.275 77.137v2.554h-1.039v-6.808h2.316c0.437-0.007 0.873 0.043 1.293 0.149 0.336 0.083 0.648 0.227 0.914 0.424 0.231 0.184 0.409 0.413 0.519 0.668 0.123 0.278 0.183 0.573 0.177 0.871 0.005 0.299-0.061 0.595-0.192 0.871-0.125 0.261-0.317 0.494-0.561 0.681-0.266 0.205-0.58 0.359-0.919 0.451-0.404 0.112-0.827 0.166-1.252 0.158l-1.257-0.018zM44.275 76.406h1.257c0.273 0.003 0.545-0.032 0.805-0.104 0.215-0.063 0.412-0.163 0.582-0.293 0.156-0.125 0.277-0.279 0.353-0.451 0.085-0.182 0.127-0.377 0.125-0.573 0.012-0.189-0.023-0.378-0.104-0.555s-0.205-0.335-0.363-0.465c-0.397-0.269-0.895-0.4-1.397-0.366h-1.257v2.806z"></path>
<path fill="#afb1b8" style="fill: var(--color1, #afb1b8)" d="M58.234 79.7h-0.821c-0.082 0.003-0.163-0.020-0.228-0.063-0.059-0.042-0.105-0.097-0.135-0.158l-0.706-1.647h-3.547l-0.732 1.647c-0.027 0.060-0.072 0.113-0.13 0.154-0.066 0.046-0.149 0.070-0.234 0.068h-0.821l3.116-6.818h1.080l3.157 6.818zM53.093 77.168h2.929l-1.236-2.775c-0.094-0.209-0.172-0.423-0.234-0.641l-0.12 0.357c-0.036 0.108-0.078 0.208-0.114 0.289l-1.226 2.771z"></path>
<path fill="#afb1b8" style="fill: var(--color1, #afb1b8)" d="M62.721 72.913c0.062 0.030 0.115 0.071 0.156 0.122l4.544 5.14c0-0.081 0-0.162 0-0.239s0-0.153 0-0.226v-4.828h0.93v6.818h-0.519c-0.074 0.002-0.147-0.012-0.213-0.041-0.064-0.033-0.121-0.075-0.166-0.126l-4.539-5.135c0.005 0.078 0.005 0.156 0 0.235 0 0.077 0 0.144 0 0.207v4.86h-0.93v-6.818h0.55c0.064-0.002 0.128 0.009 0.187 0.032z"></path>
<path fill="#afb1b8" style="fill: var(--color1, #afb1b8)" d="M76.006 76.988v2.707h-1.039v-2.707l-2.872-4.106h0.93c0.080-0.004 0.159 0.017 0.223 0.058 0.056 0.044 0.104 0.096 0.14 0.154l1.797 2.649c0.073 0.113 0.135 0.217 0.187 0.316s0.094 0.194 0.13 0.289l0.135-0.293c0.050-0.107 0.11-0.211 0.177-0.311l1.771-2.667c0.037-0.053 0.083-0.102 0.135-0.144 0.062-0.047 0.142-0.071 0.223-0.068h0.94l-2.877 4.124z"></path>
<path fill="#afb1b8" style="fill: var(--color1, #afb1b8)" d="M33.774 61.44c0.452 0.050 0.909 0.090 1.371 0.126 7.007-2.724 12.935-7.181 17.043-12.816s6.213-12.196 6.052-18.864l-7.722-6.71c1.57 7.1 0.836 14.439-2.121 21.196s-8.020 12.667-14.622 17.067z"></path>
<path fill="#afb1b8" style="fill: var(--color1, #afb1b8)" d="M31.016 61.128l0.208 0.036c7.055-4.384 12.434-10.507 15.441-17.576s3.504-14.759 1.427-22.076l-10.999-9.556c4.449 7.855 6.24 16.647 5.164 25.351s-4.973 16.965-11.24 23.821z"></path>
<path fill="#afb1b8" style="fill: var(--color1, #afb1b8)" d="M68.32 37.765c-1.869 7.327-6.407 13.935-12.942 18.843-1.908 1.441-3.967 2.725-6.149 3.835 5.321-1.359 10.212-3.761 14.295-7.022s7.25-7.293 9.257-11.785l-4.461-3.871z"></path>
<path fill="#afb1b8" style="fill: var(--color1, #afb1b8)" d="M66.57 36.686l-6.351-5.518c-0.122 6.292-2.18 12.44-5.962 17.807s-9.149 9.755-15.543 12.709h0.031c1.425-0 2.849-0.074 4.264-0.221 5.976-2.119 11.255-5.491 15.366-9.814s6.927-9.463 8.195-14.962z"></path>
<path fill="#afb1b8" style="fill: var(--color1, #afb1b8)" d="M31.936 7.926l-7.577-6.592c-6.774 2.274-12.599 6.272-16.714 11.471s-6.328 11.355-6.349 17.665v0c0.025 6.972 2.726 13.737 7.675 19.225s11.862 9.385 19.647 11.075c6.949-7.356 11.018-16.446 11.615-25.949s-2.309-18.924-8.296-26.893z"></path>
<path fill="#afb1b8" style="fill: var(--color1, #afb1b8)" d="M84.076 35.671c-0.027-8.271-3.821-16.197-10.553-22.046s-15.854-9.145-25.374-9.169c-4.399-0.004-8.761 0.701-12.864 2.080l46.392 40.307c1.588-3.563 2.402-7.351 2.399-11.172z"></path>
</symbol>
<symbol id="icon-Union" viewBox="0 0 70 80">
<path fill="#afb1b8" style="fill: var(--color1, #afb1b8)" d="M10.213 0l11.928 11.292-22.141-0.013v54.787h57.872v-20.948l11.915 11.28v-56.398h-59.574zM57.349 43.793l-33.821-32.018h33.821v32.018zM46.848 58.052h-37.69v-36.847h2.664v34.352h35.026v2.495zM18.058 73.36l-1.392 2.867-1.392-2.867h-1.168l2.032 3.823v2.227h1.056v-2.227l2.028-3.823h-1.164zM19.807 79.411l0.49-1.409h2.344l0.494 1.409h1.097l-2.29-6.051h-0.943l-2.286 6.051h1.093zM21.469 74.644l0.877 2.51h-1.754l0.877-2.51zM27.013 77.009c-0.152 0.233-0.229 0.489-0.229 0.769 0 0.51 0.179 0.924 0.536 1.243 0.36 0.316 0.839 0.474 1.438 0.474s1.114-0.162 1.546-0.486l0.341 0.403h1.172l-0.889-1.051c0.349-0.476 0.524-1.087 0.524-1.832h-0.877c0 0.407-0.084 0.777-0.253 1.109l-1.168-1.38 0.411-0.299c0.291-0.211 0.5-0.421 0.628-0.632 0.127-0.213 0.191-0.446 0.191-0.698 0-0.382-0.141-0.702-0.424-0.96-0.28-0.26-0.64-0.391-1.081-0.391-0.488 0-0.875 0.139-1.164 0.415-0.288 0.274-0.432 0.648-0.432 1.122 0 0.194 0.046 0.395 0.137 0.603 0.094 0.208 0.259 0.46 0.494 0.756-0.449 0.321-0.749 0.6-0.902 0.835zM29.743 78.347c-0.296 0.227-0.615 0.341-0.956 0.341-0.302 0-0.543-0.087-0.723-0.262s-0.27-0.402-0.27-0.682c0-0.324 0.166-0.612 0.499-0.864l0.129-0.091 1.321 1.558zM28.659 75.667c-0.285-0.352-0.428-0.644-0.428-0.877 0-0.202 0.058-0.37 0.175-0.503s0.273-0.199 0.47-0.199c0.183 0 0.334 0.057 0.453 0.17 0.119 0.111 0.179 0.245 0.179 0.403 0 0.238-0.086 0.434-0.258 0.586l-0.129 0.104-0.461 0.316zM38.507 78.954c0.416-0.363 0.654-0.867 0.715-1.513h-1.047c-0.055 0.432-0.187 0.741-0.395 0.927s-0.518 0.278-0.931 0.278c-0.452 0-0.795-0.172-1.030-0.515-0.233-0.344-0.349-0.842-0.349-1.496v-0.536c0.005-0.645 0.13-1.134 0.374-1.467 0.247-0.335 0.598-0.503 1.055-0.503 0.393 0 0.691 0.097 0.893 0.291 0.205 0.191 0.332 0.504 0.382 0.939h1.047c-0.067-0.662-0.304-1.175-0.711-1.537s-0.945-0.544-1.612-0.544c-0.496 0-0.934 0.118-1.313 0.353-0.377 0.236-0.666 0.571-0.868 1.006s-0.303 0.938-0.303 1.509v0.565c0.008 0.557 0.112 1.046 0.312 1.467s0.482 0.747 0.848 0.976c0.369 0.227 0.794 0.341 1.276 0.341 0.69 0 1.243-0.18 1.658-0.54zM44.687 78.106c0.205-0.449 0.308-0.97 0.308-1.563v-0.336c-0.003-0.59-0.108-1.107-0.316-1.55-0.208-0.446-0.503-0.787-0.885-1.022-0.38-0.238-0.816-0.357-1.309-0.357s-0.931 0.121-1.313 0.362c-0.38 0.238-0.675 0.583-0.885 1.035-0.208 0.452-0.312 0.972-0.312 1.563v0.341c0.003 0.579 0.108 1.090 0.316 1.533 0.211 0.443 0.507 0.786 0.889 1.027 0.385 0.238 0.823 0.357 1.313 0.357 0.496 0 0.934-0.119 1.313-0.357 0.382-0.241 0.676-0.585 0.881-1.031zM43.561 74.686c0.255 0.357 0.382 0.871 0.382 1.542v0.316c0 0.682-0.126 1.2-0.378 1.554-0.249 0.355-0.607 0.532-1.072 0.532-0.46 0-0.82-0.181-1.081-0.544-0.258-0.363-0.387-0.877-0.387-1.542v-0.349c0.006-0.651 0.136-1.154 0.391-1.509 0.258-0.357 0.614-0.536 1.068-0.536 0.465 0 0.824 0.179 1.076 0.536z"></path>
</symbol>
<symbol id="icon-instagram-2" viewBox="0 0 80 80">
<path fill="#afb1b8" style="fill: var(--color1, #afb1b8)" d="M79.922 23.52c-0.187-4.251-0.875-7.173-1.859-9.705-1.016-2.688-2.579-5.094-4.626-7.095-2-2.032-4.423-3.61-7.080-4.61-2.547-0.985-5.454-1.672-9.704-1.86-4.282-0.203-5.642-0.25-16.504-0.25s-12.221 0.047-16.488 0.234c-4.251 0.187-7.173 0.875-9.705 1.86-2.689 1.016-5.095 2.579-7.095 4.626-2.032 2-3.61 4.423-4.61 7.080-0.985 2.547-1.672 5.454-1.86 9.705-0.203 4.282-0.25 5.642-0.25 16.504s0.047 12.221 0.234 16.488c0.187 4.25 0.875 7.173 1.86 9.705 1.016 2.688 2.594 5.094 4.626 7.095 2.001 2.032 4.423 3.61 7.080 4.61 2.548 0.984 5.454 1.672 9.705 1.859 4.266 0.188 5.626 0.234 16.488 0.234s12.221-0.046 16.488-0.234c4.251-0.187 7.173-0.875 9.704-1.859 5.376-2.079 9.627-6.33 11.706-11.705 0.984-2.548 1.672-5.455 1.86-9.705 0.187-4.267 0.234-5.626 0.234-16.488s-0.016-12.221-0.204-16.488zM72.718 56.183c-0.172 3.907-0.828 6.017-1.375 7.423-1.344 3.485-4.11 6.251-7.596 7.596-1.406 0.547-3.532 1.203-7.423 1.375-4.22 0.188-5.485 0.234-16.159 0.234s-11.956-0.046-16.16-0.234c-3.907-0.172-6.017-0.828-7.423-1.375-1.734-0.641-3.313-1.657-4.594-2.985-1.328-1.297-2.344-2.86-2.985-4.594-0.547-1.406-1.203-3.532-1.375-7.423-0.188-4.22-0.234-5.486-0.234-16.16s0.046-11.955 0.234-16.159c0.171-3.907 0.828-6.017 1.375-7.423 0.641-1.735 1.657-3.313 3.001-4.595 1.297-1.328 2.859-2.344 4.594-2.985 1.406-0.547 3.532-1.203 7.423-1.375 4.22-0.187 5.486-0.234 16.159-0.234 10.69 0 11.955 0.047 16.16 0.234 3.907 0.172 6.017 0.828 7.424 1.375 1.734 0.64 3.313 1.656 4.594 2.985 1.328 1.297 2.344 2.86 2.985 4.595 0.547 1.406 1.203 3.532 1.375 7.423 0.188 4.22 0.234 5.485 0.234 16.159s-0.047 11.924-0.234 16.144z"></path>
<path fill="#afb1b8" style="fill: var(--color1, #afb1b8)" d="M40.148 19.457c-11.346 0-20.551 9.205-20.551 20.551s9.205 20.551 20.551 20.551c11.346 0 20.551-9.204 20.551-20.551s-9.205-20.551-20.551-20.551zM40.148 53.338c-7.361 0-13.331-5.97-13.331-13.331s5.97-13.331 13.331-13.331c7.361 0 13.331 5.97 13.331 13.331s-5.97 13.331-13.331 13.331z"></path>
<path fill="#afb1b8" style="fill: var(--color1, #afb1b8)" d="M66.31 18.644c0 2.649-2.148 4.798-4.798 4.798s-4.798-2.148-4.798-4.798c0-2.65 2.148-4.798 4.798-4.798s4.798 2.148 4.798 4.798z"></path>
</symbol>
<symbol id="icon-twitter-1" viewBox="0 0 80 80">
<path fill="#afb1b8" style="fill: var(--color1, #afb1b8)" d="M80 15.195c-2.975 1.305-6.145 2.17-9.45 2.59 3.4-2.030 5.995-5.22 7.215-9.065-3.17 1.89-6.67 3.225-10.4 3.97-3.010-3.205-7.3-5.19-11.98-5.19-9.080 0-16.39 7.37-16.39 16.405 0 1.3 0.11 2.55 0.38 3.74-13.635-0.665-25.7-7.2-33.805-17.155-1.415 2.455-2.245 5.265-2.245 8.29 0 5.68 2.925 10.715 7.285 13.63-2.635-0.050-5.22-0.815-7.41-2.020 0 0.050 0 0.115 0 0.18 0 7.97 5.685 14.59 13.14 16.115-1.335 0.365-2.79 0.54-4.3 0.54-1.050 0-2.11-0.060-3.105-0.28 2.125 6.495 8.155 11.27 15.325 11.425-5.58 4.365-12.665 6.995-20.335 6.995-1.345 0-2.635-0.060-3.925-0.225 7.265 4.685 15.875 7.36 25.16 7.36 30.18 0 46.68-25 46.68-46.67 0-0.725-0.025-1.425-0.060-2.12 3.255-2.31 5.99-5.195 8.22-8.515z"></path>
</symbol>
<symbol id="icon-facebook-1" viewBox="0 0 80 80">
<path fill="#afb1b8" style="fill: var(--color1, #afb1b8)" d="M53.323 13.283h7.304v-12.72c-1.26-0.173-5.594-0.563-10.64-0.563-10.53 0-17.744 6.623-17.744 18.797v11.203h-11.62v14.22h11.62v35.78h14.247v-35.777h11.15l1.77-14.22h-12.923v-9.797c0.003-4.11 1.11-6.923 6.836-6.923z"></path>
</symbol>
<symbol id="icon-linkedin-1" viewBox="0 0 80 80">
<path fill="#afb1b8" style="fill: var(--color1, #afb1b8)" d="M79.98 80v-0.003h0.020v-29.34c0-14.353-3.090-25.41-19.87-25.41-8.067 0-13.48 4.427-15.69 8.623h-0.233v-7.283h-15.91v53.41h16.567v-26.447c0-6.963 1.32-13.696 9.944-13.696 8.496 0 8.623 7.946 8.623 14.143v26.003h16.55z"></path>
<path fill="#afb1b8" style="fill: var(--color1, #afb1b8)" d="M1.32 26.59h16.587v53.41h-16.587v-53.41z"></path>
<path fill="#afb1b8" style="fill: var(--color1, #afb1b8)" d="M9.607 0c-5.303 0-9.607 4.303-9.607 9.607s4.303 9.697 9.607 9.697c5.303 0 9.607-4.393 9.607-9.697-0.003-5.303-4.307-9.607-9.607-9.607v0z"></path>
</symbol>
</defs>
</svg>
