<svg aria-hidden="true" style="position: absolute; width: 0; height: 0; overflow: hidden;" version="1.1" xmlns="http://www.w3.org/2000/svg" xmlns:xlink="http://www.w3.org/1999/xlink">
<defs>
<symbol id="icon-add-outline" viewBox="0 0 20 20">
<path d="M11 9h4v2h-4v4h-2v-4h-4v-2h4v-4h2v4zM10 20c-5.523 0-10-4.477-10-10s4.477-10 10-10v0c5.523 0 10 4.477 10 10s-4.477 10-10 10v0zM10 18c4.418 0 8-3.582 8-8s-3.582-8-8-8v0c-4.418 0-8 3.582-8 8s3.582 8 8 8v0z"></path>
</symbol>
<symbol id="icon-add-solid" viewBox="0 0 20 20">
<path d="M11 9v-4h-2v4h-4v2h4v4h2v-4h4v-2h-4zM10 20c-5.523 0-10-4.477-10-10s4.477-10 10-10v0c5.523 0 10 4.477 10 10s-4.477 10-10 10v0z"></path>
</symbol>
<symbol id="icon-adjust" viewBox="0 0 20 20">
<path d="M10 2v16c4.418 0 8-3.582 8-8s-3.582-8-8-8v0zM10 20c-5.523 0-10-4.477-10-10s4.477-10 10-10v0c5.523 0 10 4.477 10 10s-4.477 10-10 10v0z"></path>
</symbol>
<symbol id="icon-airplane" viewBox="0 0 20 20">
<path d="M8.4 12h-5.6l-1.8 3h-1v-10h1l1.8 3h5.6l-2.4-8h2l4.8 8h5.2c1.105 0 2 0.895 2 2s-0.895 2-2 2v0h-5.2l-4.8 8h-2l2.4-8z"></path>
</symbol>
<symbol id="icon-album" viewBox="0 0 20 20">
<path d="M0 0h20v20h-20v-20zM10 18c4.418 0 8-3.582 8-8s-3.582-8-8-8v0c-4.418 0-8 3.582-8 8s3.582 8 8 8v0zM10 13c-1.657 0-3-1.343-3-3s1.343-3 3-3v0c1.657 0 3 1.343 3 3s-1.343 3-3 3v0z"></path>
</symbol>
<symbol id="icon-align-center" viewBox="0 0 20 20">
<path d="M1 1h18v2h-18v-2zM1 9h18v2h-18v-2zM1 17h18v2h-18v-2zM4 5h12v2h-12v-2zM4 13h12v2h-12v-2z"></path>
</symbol>
<symbol id="icon-align-justified" viewBox="0 0 20 20">
<path d="M1 1h18v2h-18v-2zM1 9h18v2h-18v-2zM1 17h18v2h-18v-2zM1 5h18v2h-18v-2zM1 13h18v2h-18v-2z"></path>
</symbol>
<symbol id="icon-align-left" viewBox="0 0 20 20">
<path d="M1 1h18v2h-18v-2zM1 9h18v2h-18v-2zM1 17h18v2h-18v-2zM1 5h12v2h-12v-2zM1 13h12v2h-12v-2z"></path>
</symbol>
<symbol id="icon-align-right" viewBox="0 0 20 20">
<path d="M1 1h18v2h-18v-2zM1 9h18v2h-18v-2zM1 17h18v2h-18v-2zM7 5h12v2h-12v-2zM7 13h12v2h-12v-2z"></path>
</symbol>
<symbol id="icon-anchor" viewBox="0 0 20 20">
<path d="M4.34 15.66c1.216 1.219 2.825 2.046 4.62 2.276l0.040 0.004v-7.94h-4v-2h4v-2.17c-1.175-0.424-2-1.53-2-2.828 0-1.657 1.343-3 3-3s3 1.343 3 3c0 1.298-0.825 2.404-1.979 2.822l-0.021 0.007v2.17h4v2h-4v7.94c1.835-0.234 3.444-1.061 4.66-2.28l0-0-1.42-1.42h5.66l-2.83 2.83c-1.81 1.809-4.309 2.928-7.070 2.928s-5.26-1.119-7.070-2.928l-2.83-2.83h5.66l-1.42 1.42zM10 4c0.552 0 1-0.448 1-1s-0.448-1-1-1v0c-0.552 0-1 0.448-1 1s0.448 1 1 1v0z"></path>
</symbol>
<symbol id="icon-announcement" viewBox="0 0 20 20">
<path d="M3 6c0-1.1 0.9-2 2-2h8l4-4h2v16h-2l-4-4h-8c-1.105 0-2-0.895-2-2v0h-2v-4h2zM11 15v5h-3l-1.67-5h-1.33v-2h8v2h-2z"></path>
</symbol>
<symbol id="icon-apparel" viewBox="0 0 20 20">
<path d="M7 0h-1l-6 3v6l4-1v12h12v-12l4 1v-6l-6-3h-1c0 1.657-1.343 3-3 3s-3-1.343-3-3v0z"></path>
</symbol>
<symbol id="icon-arrow-down" viewBox="0 0 20 20">
<path d="M9 16.172l-6.071-6.071-1.414 1.414 8.485 8.485 8.485-8.485-1.414-1.414-6.071 6.071v-16.172h-2z"></path>
</symbol>
<symbol id="icon-arrow-left" viewBox="0 0 20 20">
<path d="M3.828 9l6.071-6.071-1.414-1.414-8.485 8.485 8.485 8.485 1.414-1.414-6.071-6.071h16.172v-2h-16.172z"></path>
</symbol>
<symbol id="icon-arrow-outline-down" viewBox="0 0 20 20">
<path d="M10 20c-5.523 0-10-4.477-10-10s4.477-10 10-10v0c5.523 0 10 4.477 10 10s-4.477 10-10 10v0zM10 18c4.418 0 8-3.582 8-8s-3.582-8-8-8v0c-4.418 0-8 3.582-8 8s3.582 8 8 8v0zM8 10v-5h4v5h3l-5 5-5-5h3z"></path>
</symbol>
<symbol id="icon-arrow-outline-left" viewBox="0 0 20 20">
<path d="M0 10c0-5.523 4.477-10 10-10s10 4.477 10 10v0c0 5.523-4.477 10-10 10s-10-4.477-10-10v0zM2 10c0 4.418 3.582 8 8 8s8-3.582 8-8v0c0-4.418-3.582-8-8-8s-8 3.582-8 8v0zM10 8h5v4h-5v3l-5-5 5-5v3z"></path>
</symbol>
<symbol id="icon-arrow-outline-right" viewBox="0 0 20 20">
<path d="M20 10c0 5.523-4.477 10-10 10s-10-4.477-10-10v0c0-5.523 4.477-10 10-10s10 4.477 10 10v0zM18 10c0-4.418-3.582-8-8-8s-8 3.582-8 8v0c0 4.418 3.582 8 8 8s8-3.582 8-8v0zM10 12h-5v-4h5v-3l5 5-5 5v-3z"></path>
</symbol>
<symbol id="icon-arrow-outline-up" viewBox="0 0 20 20">
<path d="M10 0c5.523 0 10 4.477 10 10s-4.477 10-10 10v0c-5.523 0-10-4.477-10-10s4.477-10 10-10v0zM10 2c-4.418 0-8 3.582-8 8s3.582 8 8 8v0c4.418 0 8-3.582 8-8s-3.582-8-8-8v0zM12 10v5h-4v-5h-3l5-5 5 5h-3z"></path>
</symbol>
<symbol id="icon-arrow-right" viewBox="0 0 20 20">
<path d="M16.172 9l-6.071-6.071 1.414-1.414 8.485 8.485-8.485 8.485-1.414-1.414 6.071-6.071h-16.172v-2z"></path>
</symbol>
<symbol id="icon-arrow-thick-down" viewBox="0 0 20 20">
<path d="M7 10v-8h6v8h5l-8 8-8-8h5z"></path>
</symbol>
<symbol id="icon-arrow-thick-left" viewBox="0 0 20 20">
<path d="M10 13h8v-6h-8v-5l-8 8 8 8v-5z"></path>
</symbol>
<symbol id="icon-arrow-thick-right" viewBox="0 0 20 20">
<path d="M10 7h-8v6h8v5l8-8-8-8v5z"></path>
</symbol>
<symbol id="icon-arrow-thick-up" viewBox="0 0 20 20">
<path d="M7 10v8h6v-8h5l-8-8-8 8h5z"></path>
</symbol>
<symbol id="icon-arrow-thin-down" viewBox="0 0 20 20">
<path d="M9 16.172l-6.071-6.071-1.414 1.414 8.485 8.485 8.485-8.485-1.414-1.414-6.071 6.071v-16.172h-2z"></path>
</symbol>
<symbol id="icon-arrow-thin-left" viewBox="0 0 20 20">
<path d="M3.828 9l6.071-6.071-1.414-1.414-8.485 8.485 8.485 8.485 1.414-1.414-6.071-6.071h16.172v-2h-16.172z"></path>
</symbol>
<symbol id="icon-arrow-thin-right" viewBox="0 0 20 20">
<path d="M16.172 9l-6.071-6.071 1.414-1.414 8.485 8.485-8.485 8.485-1.414-1.414 6.071-6.071h-16.172v-2z"></path>
</symbol>
<symbol id="icon-arrow-thin-up" viewBox="0 0 20 20">
<path d="M9 3.828l-6.071 6.071-1.414-1.414 8.485-8.485 8.485 8.485-1.414 1.414-6.071-6.071v16.172h-2v-16.172z"></path>
</symbol>
<symbol id="icon-arrow-up" viewBox="0 0 20 20">
<path d="M9 3.828l-6.071 6.071-1.414-1.414 8.485-8.485 8.485 8.485-1.414 1.414-6.071-6.071v16.172h-2v-16.172z"></path>
</symbol>
<symbol id="icon-artist" viewBox="0 0 20 20">
<path d="M15.75 8l-3.74-3.75c-0.006-0.083-0.010-0.18-0.010-0.277 0-2.204 1.786-3.99 3.99-3.99 1.111 0 2.116 0.454 2.839 1.187l0 0c0.73 0.725 1.182 1.729 1.182 2.839 0 2.209-1.791 4-4 4-0.092 0-0.183-0.003-0.274-0.009l0.012 0.001zM1.85 15.3l9.2-9.19 2.83 2.83-9.2 9.2-2.82-2.84zM0.45 18.13l2.11-2.12 1.42 1.42-2.12 2.12-1.42-1.42zM10 15l2-2v7h-2v-5z"></path>
</symbol>
<symbol id="icon-at-symbol" viewBox="0 0 20 20">
<path d="M13.6 13.47c-0.91 0.953-2.191 1.545-3.61 1.545-2.756 0-4.99-2.234-4.99-4.99 0-0.009 0-0.018 0-0.026v0.001c0-2.761 2.239-5 5-5 1.131 0 2.175 0.376 3.013 1.009l-0.013-0.009v-1h2v6.5c0 0.828 0.672 1.5 1.5 1.5s1.5-0.672 1.5-1.5v0-1.5c-0.003-4.416-3.584-7.994-8-7.994-4.418 0-8 3.582-8 8s3.582 8 8 8c1.305 0 2.537-0.312 3.625-0.867l-0.045 0.021 0.9 1.79c-1.305 0.668-2.847 1.060-4.48 1.060-5.523 0-10-4.477-10-10s4.477-10 10-10c5.519 0 9.994 4.472 10 9.99v0.001h-0.010v1.5c0 0.003 0 0.007 0 0.010 0 1.933-1.567 3.5-3.5 3.5-1.202 0-2.262-0.606-2.892-1.528l-0.008-0.012zM10 13c1.657 0 3-1.343 3-3s-1.343-3-3-3v0c-1.657 0-3 1.343-3 3s1.343 3 3 3v0z"></path>
</symbol>
<symbol id="icon-attachment" viewBox="0 0 20 20">
<path d="M15 3h-8c-3.866 0-7 3.134-7 7s3.134 7 7 7v0h8v-2h-8c-2.761 0-5-2.239-5-5s2.239-5 5-5v0h8c1.657 0 3 1.343 3 3s-1.343 3-3 3v0h-8c-0.552 0-1-0.448-1-1s0.448-1 1-1v0h8v-2h-8c-1.657 0-3 1.343-3 3s1.343 3 3 3v0h8c2.761 0 5-2.239 5-5s-2.239-5-5-5v0z"></path>
</symbol>
<symbol id="icon-backspace" viewBox="0 0 20 20">
<path d="M0 10l7-7h13v14h-13l-7-7zM14.41 10l2.13-2.12-1.42-1.42-2.12 2.14-2.12-2.13-1.42 1.42 2.14 2.11-2.13 2.12 1.42 1.42 2.11-2.14 2.12 2.13 1.42-1.42-2.14-2.11z"></path>
</symbol>
<symbol id="icon-backward" viewBox="0 0 20 20">
<path d="M19 5v10l-9-5 9-5zM10 5v10l-9-5 9-5z"></path>
</symbol>
<symbol id="icon-backward-step" viewBox="0 0 20 20">
<path d="M4 5h3v10h-3v-10zM16 5v10l-9-5 9-5z"></path>
</symbol>
<symbol id="icon-badge" viewBox="0 0 20 20">
<path d="M10 12c-3.314 0-6-2.686-6-6s2.686-6 6-6v0c3.314 0 6 2.686 6 6s-2.686 6-6 6v0zM10 9c1.657 0 3-1.343 3-3s-1.343-3-3-3v0c-1.657 0-3 1.343-3 3s1.343 3 3 3v0zM14 11.75v8.25l-4-4-4 4v-8.25c1.115 0.79 2.502 1.262 4 1.262s2.885-0.473 4.022-1.277l-0.022 0.015z"></path>
</symbol>
<symbol id="icon-battery-full" viewBox="0 0 20 20">
<path d="M0 6c0-1.1 0.9-2 2-2h16c1.105 0 2 0.895 2 2v0 8c0 1.105-0.895 2-2 2v0h-16c-1.105 0-2-0.895-2-2v0-8zM2 6v8h16v-8h-16zM3 7h4v6h-4v-6zM8 7h4v6h-4v-6zM13 7h4v6h-4v-6z"></path>
</symbol>
<symbol id="icon-battery-half" viewBox="0 0 20 20">
<path d="M0 6c0-1.1 0.9-2 2-2h16c1.105 0 2 0.895 2 2v0 8c0 1.105-0.895 2-2 2v0h-16c-1.105 0-2-0.895-2-2v0-8zM2 6v8h16v-8h-16zM3 7h4v6h-4v-6zM8 7h4v6h-4v-6z"></path>
</symbol>
<symbol id="icon-battery-low" viewBox="0 0 20 20">
<path d="M0 6c0-1.1 0.9-2 2-2h16c1.105 0 2 0.895 2 2v0 8c0 1.105-0.895 2-2 2v0h-16c-1.105 0-2-0.895-2-2v0-8zM2 6v8h16v-8h-16zM3 7h4v6h-4v-6z"></path>
</symbol>
<symbol id="icon-beverage" viewBox="0 0 20 20">
<path d="M9 18v-7l-9-9v-2h20v2l-9 9v7l5 1v1h-12v-1l5-1zM11 8c1.105 0 2-0.895 2-2s-0.895-2-2-2v0c-1.105 0-2 0.895-2 2s0.895 2 2 2v0z"></path>
</symbol>
<symbol id="icon-block" viewBox="0 0 20 20">
<path d="M0 10c0-5.523 4.477-10 10-10s10 4.477 10 10v0c0 5.523-4.477 10-10 10s-10-4.477-10-10v0zM16.32 5.1l-11.23 11.21c1.34 1.049 3.050 1.683 4.908 1.683 4.418 0 8-3.582 8-8 0-1.855-0.632-3.563-1.692-4.92l0.013 0.018zM14.91 3.68c-1.344-1.059-3.061-1.698-4.928-1.698-4.418 0-8 3.582-8 8 0 1.867 0.639 3.584 1.711 4.945l-0.013-0.017 11.23-11.23z"></path>
</symbol>
<symbol id="icon-bluetooth" viewBox="0 0 20 20">
<path d="M9.41 0l6 6-4 4 4 4-6 6h-0.41v-7.59l-3.3 3.3-1.4-1.42 4.28-4.29-4.3-4.3 1.42-1.4 3.3 3.28v-7.58h0.41zM11 4.41v3.19l1.59-1.6-1.59-1.59zM12.59 14l-1.59-1.59v3.18l1.59-1.59z"></path>
</symbol>
<symbol id="icon-bolt" viewBox="0 0 20 20">
<path d="M13 8v-8l-10 12h4v8l10-12h-4z"></path>
</symbol>
<symbol id="icon-book-reference" viewBox="0 0 20 20">
<path d="M6 4h-1c-0.552 0-1-0.448-1-1s0.448-1 1-1v0h11v-1c0-0.552-0.448-1-1-1v0h-11c-1.105 0-2 0.895-2 2v0 16c0 1.1 0.9 2 2 2h12c1.105 0 2-0.895 2-2v0-13c0-0.552-0.448-1-1-1v0h-7v8l-2-2-2 2v-8z"></path>
</symbol>
<symbol id="icon-bookmark" viewBox="0 0 20 20">
<path d="M2 2c0-1.1 0.9-2 2-2h12c1.105 0 2 0.895 2 2v0 18l-8-4-8 4v-18z"></path>
</symbol>
<symbol id="icon-bookmarkcopy2" viewBox="0 0 20 20">
<path d="M18 12v1h-10v5l-6-6 6-6v5h8v-9h2z"></path>
</symbol>
<symbol id="icon-bookmarkcopy3" viewBox="0 0 20 20">
<path d="M3.5 13h8.5v5l6-6-6-6v5h-8v-9h-2v11z"></path>
</symbol>
<symbol id="icon-bookmark-outline" viewBox="0 0 20 20">
<path d="M2 2c0-1.1 0.9-2 2-2h12c1.105 0 2 0.895 2 2v0 18l-8-4-8 4v-18zM4 2v15l6-3 6 3v-15h-12z"></path>
</symbol>
<symbol id="icon-bookmark-outline-add" viewBox="0 0 20 20">
<path d="M2 2c0-1.1 0.9-2 2-2h12c1.105 0 2 0.895 2 2v0 18l-8-4-8 4v-18zM4 2v15l6-3 6 3v-15h-12zM9 7v-2h2v2h2v2h-2v2h-2v-2h-2v-2h2z"></path>
</symbol>
<symbol id="icon-border-all" viewBox="0 0 20 20">
<path d="M11 11v6h6v-6h-6zM11 9h6v-6h-6v6zM9 11h-6v6h6v-6zM9 9v-6h-6v6h6zM1 18v-17h18v18h-18v-1z"></path>
</symbol>
<symbol id="icon-border-bottom" viewBox="0 0 20 20">
<path d="M1 1h2v2h-2v-2zM1 5h2v2h-2v-2zM1 9h2v2h-2v-2zM1 13h2v2h-2v-2zM1 17h18v2h-18v-2zM5 1h2v2h-2v-2zM5 9h2v2h-2v-2zM9 1h2v2h-2v-2zM9 5h2v2h-2v-2zM9 9h2v2h-2v-2zM9 13h2v2h-2v-2zM13 1h2v2h-2v-2zM13 9h2v2h-2v-2zM17 1h2v2h-2v-2zM17 5h2v2h-2v-2zM17 9h2v2h-2v-2zM17 13h2v2h-2v-2z"></path>
</symbol>
<symbol id="icon-border-horizontal" viewBox="0 0 20 20">
<path d="M1 1h2v2h-2v-2zM1 5h2v2h-2v-2zM1 9h18v2h-18v-2zM1 13h2v2h-2v-2zM1 17h2v2h-2v-2zM5 1h2v2h-2v-2zM5 17h2v2h-2v-2zM9 1h2v2h-2v-2zM9 5h2v2h-2v-2zM9 13h2v2h-2v-2zM9 17h2v2h-2v-2zM13 1h2v2h-2v-2zM13 17h2v2h-2v-2zM17 1h2v2h-2v-2zM17 5h2v2h-2v-2zM17 13h2v2h-2v-2zM17 17h2v2h-2v-2z"></path>
</symbol>
<symbol id="icon-border-inner" viewBox="0 0 20 20">
<path d="M9 9v-8h2v8h8v2h-8v8h-2v-8h-8v-2h8zM1 1h2v2h-2v-2zM1 5h2v2h-2v-2zM1 13h2v2h-2v-2zM1 17h2v2h-2v-2zM5 1h2v2h-2v-2zM5 17h2v2h-2v-2zM13 1h2v2h-2v-2zM13 17h2v2h-2v-2zM17 1h2v2h-2v-2zM17 5h2v2h-2v-2zM17 13h2v2h-2v-2zM17 17h2v2h-2v-2z"></path>
</symbol>
<symbol id="icon-border-left" viewBox="0 0 20 20">
<path d="M1 1h2v18h-2v-18zM5 1h2v2h-2v-2zM5 9h2v2h-2v-2zM5 17h2v2h-2v-2zM9 1h2v2h-2v-2zM9 5h2v2h-2v-2zM9 9h2v2h-2v-2zM9 13h2v2h-2v-2zM9 17h2v2h-2v-2zM13 1h2v2h-2v-2zM13 9h2v2h-2v-2zM13 17h2v2h-2v-2zM17 1h2v2h-2v-2zM17 5h2v2h-2v-2zM17 9h2v2h-2v-2zM17 13h2v2h-2v-2zM17 17h2v2h-2v-2z"></path>
</symbol>
<symbol id="icon-border-none" viewBox="0 0 20 20">
<path d="M1 1h2v2h-2v-2zM1 5h2v2h-2v-2zM1 9h2v2h-2v-2zM1 13h2v2h-2v-2zM1 17h2v2h-2v-2zM5 1h2v2h-2v-2zM5 9h2v2h-2v-2zM5 17h2v2h-2v-2zM9 1h2v2h-2v-2zM9 5h2v2h-2v-2zM9 9h2v2h-2v-2zM9 13h2v2h-2v-2zM9 17h2v2h-2v-2zM13 1h2v2h-2v-2zM13 9h2v2h-2v-2zM13 17h2v2h-2v-2zM17 1h2v2h-2v-2zM17 5h2v2h-2v-2zM17 9h2v2h-2v-2zM17 13h2v2h-2v-2zM17 17h2v2h-2v-2z"></path>
</symbol>
<symbol id="icon-border-outer" viewBox="0 0 20 20">
<path d="M2 19h-1v-18h18v18h-17zM3 17h14v-14h-14v14zM13 9h2v2h-2v-2zM9 9h2v2h-2v-2zM5 9h2v2h-2v-2zM9 5h2v2h-2v-2zM9 13h2v2h-2v-2z"></path>
</symbol>
<symbol id="icon-border-right" viewBox="0 0 20 20">
<path d="M5 1h2v2h-2v-2zM5 9h2v2h-2v-2zM5 17h2v2h-2v-2zM9 1h2v2h-2v-2zM9 5h2v2h-2v-2zM9 9h2v2h-2v-2zM9 13h2v2h-2v-2zM9 17h2v2h-2v-2zM13 1h2v2h-2v-2zM13 9h2v2h-2v-2zM13 17h2v2h-2v-2zM1 1h2v2h-2v-2zM1 5h2v2h-2v-2zM1 9h2v2h-2v-2zM1 13h2v2h-2v-2zM1 17h2v2h-2v-2zM17 1h2v18h-2v-18z"></path>
</symbol>
<symbol id="icon-border-top" viewBox="0 0 20 20">
<path d="M1 1h18v2h-18v-2zM1 5h2v2h-2v-2zM1 9h2v2h-2v-2zM1 13h2v2h-2v-2zM1 17h2v2h-2v-2zM5 9h2v2h-2v-2zM5 17h2v2h-2v-2zM9 5h2v2h-2v-2zM9 9h2v2h-2v-2zM9 13h2v2h-2v-2zM9 17h2v2h-2v-2zM13 9h2v2h-2v-2zM13 17h2v2h-2v-2zM17 5h2v2h-2v-2zM17 9h2v2h-2v-2zM17 13h2v2h-2v-2zM17 17h2v2h-2v-2z"></path>
</symbol>
<symbol id="icon-border-vertical" viewBox="0 0 20 20">
<path d="M1 1h2v2h-2v-2zM1 5h2v2h-2v-2zM1 9h2v2h-2v-2zM1 13h2v2h-2v-2zM1 17h2v2h-2v-2zM5 1h2v2h-2v-2zM5 9h2v2h-2v-2zM5 17h2v2h-2v-2zM9 1h2v18h-2v-18zM13 1h2v2h-2v-2zM13 9h2v2h-2v-2zM13 17h2v2h-2v-2zM17 1h2v2h-2v-2zM17 5h2v2h-2v-2zM17 9h2v2h-2v-2zM17 13h2v2h-2v-2zM17 17h2v2h-2v-2z"></path>
</symbol>
<symbol id="icon-box" viewBox="0 0 20 20">
<path d="M0 2c0-1.1 0.9-2 2-2h16c1.105 0 2 0.895 2 2v0 2h-20v-2zM1 5h18v13c0 1.105-0.895 2-2 2v0h-14c-1.105 0-2-0.895-2-2v0-13zM7 7v2h6v-2h-6z"></path>
</symbol>
<symbol id="icon-brightness-down" viewBox="0 0 20 20">
<path d="M10 13c-1.657 0-3-1.343-3-3s1.343-3 3-3v0c1.657 0 3 1.343 3 3s-1.343 3-3 3v0zM9 4c0-0.552 0.448-1 1-1s1 0.448 1 1v0c0 0.552-0.448 1-1 1s-1-0.448-1-1v0zM13.54 5.050c0.184-0.215 0.456-0.35 0.76-0.35 0.552 0 1 0.448 1 1 0 0.303-0.135 0.575-0.348 0.758l-0.001 0.001c-0.184 0.215-0.456 0.35-0.76 0.35-0.552 0-1-0.448-1-1 0-0.303 0.135-0.575 0.348-0.758l0.001-0.001zM16 9c0.552 0 1 0.448 1 1s-0.448 1-1 1v0c-0.552 0-1-0.448-1-1s0.448-1 1-1v0zM14.95 13.54c0.215 0.184 0.35 0.456 0.35 0.76 0 0.552-0.448 1-1 1-0.303 0-0.575-0.135-0.758-0.348l-0.001-0.001c-0.215-0.184-0.35-0.456-0.35-0.76 0-0.552 0.448-1 1-1 0.303 0 0.575 0.135 0.758 0.348l0.001 0.001zM11 16c0 0.552-0.448 1-1 1s-1-0.448-1-1v0c0-0.552 0.448-1 1-1s1 0.448 1 1v0zM6.46 14.95c-0.184 0.215-0.456 0.35-0.76 0.35-0.552 0-1-0.448-1-1 0-0.303 0.135-0.575 0.348-0.758l0.001-0.001c0.184-0.215 0.456-0.35 0.76-0.35 0.552 0 1 0.448 1 1 0 0.303-0.135 0.575-0.348 0.758l-0.001 0.001zM4 11c-0.552 0-1-0.448-1-1s0.448-1 1-1v0c0.552 0 1 0.448 1 1s-0.448 1-1 1v0zM5.050 6.46c-0.215-0.184-0.35-0.456-0.35-0.76 0-0.552 0.448-1 1-1 0.303 0 0.575 0.135 0.758 0.348l0.001 0.001c0.215 0.184 0.35 0.456 0.35 0.76 0 0.552-0.448 1-1 1-0.303 0-0.575-0.135-0.758-0.348l-0.001-0.001z"></path>
</symbol>
<symbol id="icon-brightness-up" viewBox="0 0 20 20">
<path d="M10 14c-2.209 0-4-1.791-4-4s1.791-4 4-4v0c2.209 0 4 1.791 4 4s-1.791 4-4 4v0zM9 1c0-0.552 0.448-1 1-1s1 0.448 1 1v0 2c0 0.552-0.448 1-1 1s-1-0.448-1-1v0-2zM15.65 2.94c0.184-0.215 0.456-0.35 0.76-0.35 0.552 0 1 0.448 1 1 0 0.303-0.135 0.575-0.348 0.758l-0.001 0.001-1.4 1.4c-0.184 0.215-0.456 0.35-0.76 0.35-0.552 0-1-0.448-1-1 0-0.303 0.135-0.575 0.348-0.758l0.001-0.001 1.4-1.4zM18.99 9c0.552 0 1 0.448 1 1s-0.448 1-1 1v0h-1.98c-0.552 0-1-0.448-1-1s0.448-1 1-1v0h1.98zM17.060 15.65c0.215 0.184 0.35 0.456 0.35 0.76 0 0.552-0.448 1-1 1-0.303 0-0.575-0.135-0.758-0.348l-0.001-0.001-1.4-1.4c-0.215-0.184-0.35-0.456-0.35-0.76 0-0.552 0.448-1 1-1 0.303 0 0.575 0.135 0.758 0.348l0.001 0.001 1.4 1.4zM11 18.99c0 0.552-0.448 1-1 1s-1-0.448-1-1v0-1.98c0-0.552 0.448-1 1-1s1 0.448 1 1v0 1.98zM4.35 17.060c-0.184 0.215-0.456 0.35-0.76 0.35-0.552 0-1-0.448-1-1 0-0.303 0.135-0.575 0.348-0.758l0.001-0.001 1.4-1.4c0.184-0.215 0.456-0.35 0.76-0.35 0.552 0 1 0.448 1 1 0 0.303-0.135 0.575-0.348 0.758l-0.001 0.001-1.4 1.4zM1.010 11c-0.552 0-1-0.448-1-1s0.448-1 1-1v0h1.98c0.552 0 1 0.448 1 1s-0.448 1-1 1v0h-1.98zM2.94 4.35c-0.215-0.184-0.35-0.456-0.35-0.76 0-0.552 0.448-1 1-1 0.303 0 0.575 0.135 0.758 0.348l0.001 0.001 1.4 1.4c0.215 0.184 0.35 0.456 0.35 0.76 0 0.552-0.448 1-1 1-0.303 0-0.575-0.135-0.758-0.348l-0.001-0.001-1.4-1.4z"></path>
</symbol>
<symbol id="icon-browser-window" viewBox="0 0 20 20">
<path d="M0 3c0-1.1 0.9-2 2-2h16c1.105 0 2 0.895 2 2v0 14c0 1.105-0.895 2-2 2v0h-16c-1.105 0-2-0.895-2-2v0-14zM2 5v12h16v-12h-16z"></path>
</symbol>
<symbol id="icon-browser-window-new" viewBox="0 0 20 20">
<path d="M9 10v-2h2v2h2v2h-2v2h-2v-2h-2v-2h2zM0 3c0-1.1 0.9-2 2-2h16c1.105 0 2 0.895 2 2v0 14c0 1.105-0.895 2-2 2v0h-16c-1.105 0-2-0.895-2-2v0-14zM2 5v12h16v-12h-16z"></path>
</symbol>
<symbol id="icon-browser-window-open" viewBox="0 0 20 20">
<path d="M0 3c0-1.1 0.9-2 2-2h16c1.105 0 2 0.895 2 2v0 14c0 1.105-0.895 2-2 2v0h-16c-1.105 0-2-0.895-2-2v0-14zM2 5v12h16v-12h-16zM10 8l4 5h-8l4-5z"></path>
</symbol>
<symbol id="icon-bug" viewBox="0 0 20 20">
<path d="M15.3 14.89l2.77 2.77c0.18 0.181 0.291 0.43 0.291 0.705s-0.111 0.524-0.291 0.705l0-0c-0.181 0.18-0.43 0.291-0.705 0.291s-0.524-0.111-0.705-0.291l0 0-2.59-2.58c-0.825 0.765-1.872 1.303-3.034 1.505l-0.036 0.005v-8.96c0-0.552-0.448-1-1-1s-1 0.448-1 1v0 8.96c-1.198-0.207-2.245-0.744-3.074-1.513l0.004 0.003-2.59 2.58c-0.181 0.18-0.43 0.291-0.705 0.291s-0.524-0.111-0.705-0.291l0 0c-0.18-0.181-0.291-0.43-0.291-0.705s0.111-0.524 0.291-0.705l2.77-2.77c-0.298-0.547-0.518-1.183-0.626-1.856l-0.004-0.034h-3.070c-0.552 0-1-0.448-1-1s0.448-1 1-1v0h3v-2.59l-3.070-3.070c-0.18-0.181-0.291-0.43-0.291-0.705s0.111-0.524 0.291-0.705l-0 0c0.181-0.18 0.43-0.291 0.705-0.291s0.524 0.111 0.705 0.291l2.1 2.1h11.12l2.1-2.1c0.181-0.18 0.43-0.291 0.705-0.291s0.524 0.111 0.705 0.291l-0-0c0.18 0.181 0.291 0.43 0.291 0.705s-0.111 0.524-0.291 0.705l-3.070 3.070v2.59h3c0.552 0 1 0.448 1 1s-0.448 1-1 1v0h-3.070c-0.1 0.67-0.32 1.31-0.63 1.89zM15 5h-10c0-2.761 2.239-5 5-5s5 2.239 5 5v0z"></path>
</symbol>
<symbol id="icon-buoy" viewBox="0 0 20 20">
<path d="M17.16 6.42c-0.791-1.555-2.025-2.789-3.535-3.559l-0.045-0.021-1.34 2.69c0.968 0.494 1.736 1.262 2.217 2.202l0.013 0.028 2.69-1.34zM17.16 13.58l-2.69-1.34c-0.494 0.968-1.262 1.736-2.202 2.217l-0.028 0.013 1.34 2.69c1.555-0.791 2.789-2.025 3.559-3.535l0.021-0.045zM6.42 2.84c-1.555 0.791-2.789 2.025-3.559 3.535l-0.021 0.045 2.69 1.34c0.494-0.968 1.262-1.736 2.202-2.217l0.028-0.013-1.34-2.69zM2.84 13.58c0.791 1.555 2.025 2.789 3.535 3.559l0.045 0.021 1.34-2.69c-0.968-0.494-1.736-1.262-2.217-2.202l-0.013-0.028-2.69 1.34zM10 20c-5.523 0-10-4.477-10-10s4.477-10 10-10v0c5.523 0 10 4.477 10 10s-4.477 10-10 10v0zM10 13c1.657 0 3-1.343 3-3s-1.343-3-3-3v0c-1.657 0-3 1.343-3 3s1.343 3 3 3v0z"></path>
</symbol>
<symbol id="icon-calculator" viewBox="0 0 20 20">
<path d="M2 2c0-1.1 0.9-2 2-2h12c1.105 0 2 0.895 2 2v0 16c0 1.105-0.895 2-2 2v0h-12c-1.105 0-2-0.895-2-2v0-16zM5 3v2h10v-2h-10zM5 7v2h2v-2h-2zM9 7v2h2v-2h-2zM13 7v2h2v-2h-2zM5 11v2h2v-2h-2zM9 11v2h2v-2h-2zM13 11v6h2v-6h-2zM5 15v2h2v-2h-2zM9 15v2h2v-2h-2z"></path>
</symbol>
<symbol id="icon-calendar" viewBox="0 0 20 20">
<path d="M1 4c0-1.1 0.9-2 2-2h14c1.105 0 2 0.895 2 2v0 14c0 1.105-0.895 2-2 2v0h-14c-1.105 0-2-0.895-2-2v0-14zM3 6v12h14v-12h-14zM5 0h2v2h-2v-2zM13 0h2v2h-2v-2zM5 9h2v2h-2v-2zM5 13h2v2h-2v-2zM9 9h2v2h-2v-2zM9 13h2v2h-2v-2zM13 9h2v2h-2v-2zM13 13h2v2h-2v-2z"></path>
</symbol>
<symbol id="icon-camera" viewBox="0 0 20 20">
<path d="M0 6c0-1.1 0.9-2 2-2h3l2-2h6l2 2h3c1.105 0 2 0.895 2 2v0 10c0 1.105-0.895 2-2 2v0h-16c-1.105 0-2-0.895-2-2v0-10zM10 16c2.761 0 5-2.239 5-5s-2.239-5-5-5v0c-2.761 0-5 2.239-5 5s2.239 5 5 5v0zM10 14c-1.657 0-3-1.343-3-3s1.343-3 3-3v0c1.657 0 3 1.343 3 3s-1.343 3-3 3v0z"></path>
</symbol>
<symbol id="icon-chart" viewBox="0 0 20 20">
<path d="M4.13 12h-0.13c-1.101 0.005-1.991 0.899-1.991 2 0 1.105 0.895 2 2 2s2-0.895 2-2c0-0.324-0.077-0.631-0.214-0.901l0.005 0.011 2.060-3.11c0.033 0.002 0.072 0.003 0.11 0.003 0.192 0 0.378-0.027 0.554-0.076l-0.014 0.003 1.55 1.55c-0.044 0.157-0.070 0.337-0.070 0.523 0 1.105 0.895 2 2 2s2-0.895 2-2c0-0.325-0.078-0.633-0.216-0.904l0.005 0.011 2.090-3.11h0.13c1.101-0.005 1.991-0.899 1.991-2 0-1.105-0.895-2-2-2s-2 0.895-2 2c0 0.324 0.077 0.631 0.214 0.901l-0.005-0.011-2.060 3.11c-0.033-0.002-0.072-0.003-0.11-0.003-0.192 0-0.378 0.027-0.554 0.076l0.014-0.003-1.56-1.55c0.044-0.157 0.070-0.337 0.070-0.523 0-1.105-0.895-2-2-2s-2 0.895-2 2c0 0.325 0.078 0.633 0.216 0.904l-0.005-0.011-2.080 3.11zM0 4c0-1.1 0.9-2 2-2h16c1.105 0 2 0.895 2 2v0 12c0 1.105-0.895 2-2 2v0h-16c-1.105 0-2-0.895-2-2v0-12z"></path>
</symbol>
<symbol id="icon-chart-bar" viewBox="0 0 20 20">
<path d="M1 10h3v10h-3v-10zM6 0h3v20h-3v-20zM11 8h3v12h-3v-12zM16 4h3v16h-3v-16z"></path>
</symbol>
<symbol id="icon-chart-pie" viewBox="0 0 20 20">
<path d="M19.95 11c-0.525 5.076-4.779 9-9.95 9-5.523 0-10-4.477-10-10 0-5.171 3.924-9.425 8.957-9.946l0.043-0.004v10.95h10.95zM19.87 8.4h-8.27v-8.27c4.252 0.708 7.562 4.018 8.262 8.212l0.008 0.058z"></path>
</symbol>
<symbol id="icon-chat-bubble-dots" viewBox="0 0 20 20">
<path d="M10 15l-4 4v-4h-4c-1.105 0-2-0.895-2-2v0-10c0-1.1 0.9-2 2-2h16c1.105 0 2 0.895 2 2v0 10c0 1.105-0.895 2-2 2v0h-8zM5 7v2h2v-2h-2zM9 7v2h2v-2h-2zM13 7v2h2v-2h-2z"></path>
</symbol>
<symbol id="icon-checkmark" viewBox="0 0 20 20">
<path d="M0 11l2-2 5 5 11-11 2 2-13 13z"></path>
</symbol>
<symbol id="icon-checkmark-outline" viewBox="0 0 20 20">
<path d="M2.93 17.070c-1.884-1.821-3.053-4.37-3.053-7.193 0-5.523 4.477-10 10-10 2.823 0 5.372 1.169 7.19 3.050l0.003 0.003c1.737 1.796 2.807 4.247 2.807 6.947 0 5.523-4.477 10-10 10-2.7 0-5.151-1.070-6.95-2.81l0.003 0.003zM15.66 15.66c1.449-1.449 2.344-3.45 2.344-5.66 0-4.421-3.584-8.004-8.004-8.004-2.21 0-4.211 0.896-5.66 2.344v0c-1.449 1.449-2.344 3.45-2.344 5.66 0 4.421 3.584 8.004 8.004 8.004 2.21 0 4.211-0.896 5.66-2.344v0zM6.7 9.29l2.3 2.31 4.3-4.3 1.4 1.42-5.7 5.68-3.7-3.7 1.4-1.42z"></path>
</symbol>
<symbol id="icon-cheveron-down" viewBox="0 0 20 20">
<path d="M9.293 12.95l0.707 0.707 5.657-5.657-1.414-1.414-4.243 4.242-4.243-4.242-1.414 1.414z"></path>
</symbol>
<symbol id="icon-cheveron-left" viewBox="0 0 20 20">
<path d="M7.050 9.293l-0.707 0.707 5.657 5.657 1.414-1.414-4.242-4.243 4.242-4.243-1.414-1.414z"></path>
</symbol>
<symbol id="icon-cheveron-outline-down" viewBox="0 0 20 20">
<path d="M20 10c0 5.523-4.477 10-10 10s-10-4.477-10-10v0c0-5.523 4.477-10 10-10s10 4.477 10 10v0zM10 2c-4.418 0-8 3.582-8 8s3.582 8 8 8v0c4.418 0 8-3.582 8-8s-3.582-8-8-8v0zM9.3 12.54l-3.55-3.54 1.41-1.41 2.84 2.81 2.83-2.82 1.41 1.42-4.24 4.24-0.7-0.7z"></path>
</symbol>
<symbol id="icon-cheveron-outline-left" viewBox="0 0 20 20">
<path d="M10 20c-5.523 0-10-4.477-10-10s4.477-10 10-10v0c5.523 0 10 4.477 10 10s-4.477 10-10 10v0zM18 10c0-4.418-3.582-8-8-8s-8 3.582-8 8v0c0 4.418 3.582 8 8 8s8-3.582 8-8v0zM7.46 9.3l3.54-3.55 1.41 1.41-2.81 2.84 2.82 2.83-1.42 1.41-4.24-4.24 0.7-0.7z"></path>
</symbol>
<symbol id="icon-cheveron-outline-right" viewBox="0 0 20 20">
<path d="M10 0c5.523 0 10 4.477 10 10s-4.477 10-10 10v0c-5.523 0-10-4.477-10-10s4.477-10 10-10v0zM2 10c0 4.418 3.582 8 8 8s8-3.582 8-8v0c0-4.418-3.582-8-8-8s-8 3.582-8 8v0zM12.54 10.7l-3.54 3.55-1.41-1.41 2.81-2.84-2.8-2.83 1.4-1.41 4.24 4.24-0.7 0.7z"></path>
</symbol>
<symbol id="icon-cheveron-outline-up" viewBox="0 0 20 20">
<path d="M0 10c0-5.523 4.477-10 10-10s10 4.477 10 10v0c0 5.523-4.477 10-10 10s-10-4.477-10-10v0zM10 18c4.418 0 8-3.582 8-8s-3.582-8-8-8v0c-4.418 0-8 3.582-8 8s3.582 8 8 8v0zM10.7 7.46l3.55 3.54-1.41 1.41-2.84-2.81-2.83 2.8-1.41-1.4 4.24-4.24 0.7 0.7z"></path>
</symbol>
<symbol id="icon-cheveron-right" viewBox="0 0 20 20">
<path d="M12.95 10.707l0.707-0.707-5.657-5.657-1.414 1.414 4.242 4.243-4.242 4.243 1.414 1.414 4.95-4.95z"></path>
</symbol>
<symbol id="icon-cheveron-up" viewBox="0 0 20 20">
<path d="M10.707 7.050l-0.707-0.707-5.657 5.657 1.414 1.414 4.243-4.242 4.243 4.242 1.414-1.414z"></path>
</symbol>
<symbol id="icon-clipboard" viewBox="0 0 20 20">
<path d="M7.030 2.6c0.215-1.465 1.462-2.577 2.97-2.577s2.755 1.112 2.968 2.561l0.002 0.016 2.030 0.4v1h1c1.105 0 2 0.895 2 2v0 12c0 1.105-0.895 2-2 2v0h-12c-1.105 0-2-0.895-2-2v0-12c0-1.1 0.9-2 2-2h1v-1l2.030-0.4zM5 6h-1v12h12v-12h-1v1h-10v-1zM10 4c0.552 0 1-0.448 1-1s-0.448-1-1-1v0c-0.552 0-1 0.448-1 1s0.448 1 1 1v0z"></path>
</symbol>
<symbol id="icon-close" viewBox="0 0 20 20">
<path d="M10 8.586l-7.071-7.071-1.414 1.414 7.071 7.071-7.071 7.071 1.414 1.414 7.071-7.071 7.071 7.071 1.414-1.414-7.071-7.071 7.071-7.071-1.414-1.414-7.071 7.071z"></path>
</symbol>
<symbol id="icon-close-outline" viewBox="0 0 20 20">
<path d="M2.93 17.070c-1.884-1.821-3.053-4.37-3.053-7.193 0-5.523 4.477-10 10-10 2.823 0 5.372 1.169 7.19 3.050l0.003 0.003c1.737 1.796 2.807 4.247 2.807 6.947 0 5.523-4.477 10-10 10-2.7 0-5.151-1.070-6.95-2.81l0.003 0.003zM4.34 15.66c1.449 1.449 3.45 2.344 5.66 2.344 4.421 0 8.004-3.584 8.004-8.004 0-2.21-0.896-4.211-2.344-5.66v0c-1.449-1.449-3.45-2.344-5.66-2.344-4.421 0-8.004 3.584-8.004 8.004 0 2.21 0.896 4.211 2.344 5.66v0zM14.24 7.17l-2.83 2.83 2.83 2.83-1.41 1.41-2.83-2.83-2.83 2.83-1.41-1.41 2.83-2.83-2.83-2.83 1.41-1.41 2.83 2.83 2.83-2.83 1.41 1.41z"></path>
</symbol>
<symbol id="icon-close-solid" viewBox="0 0 20 20">
<path d="M2.93 17.070c-1.884-1.821-3.053-4.37-3.053-7.193 0-5.523 4.477-10 10-10 2.823 0 5.372 1.169 7.19 3.050l0.003 0.003c1.737 1.796 2.807 4.247 2.807 6.947 0 5.523-4.477 10-10 10-2.7 0-5.151-1.070-6.95-2.81l0.003 0.003zM11.4 10l2.83-2.83-1.41-1.41-2.82 2.83-2.83-2.83-1.41 1.41 2.83 2.83-2.83 2.83 1.41 1.41 2.83-2.83 2.83 2.83 1.41-1.41-2.83-2.83z"></path>
</symbol>
<symbol id="icon-cloud" viewBox="0 0 20 20">
<path d="M16.88 9.1c1.795 0.419 3.111 2.006 3.111 3.9 0 2.206-1.786 3.995-3.991 4h-11c-0.001 0-0.003 0-0.005 0-2.761 0-5-2.239-5-5 0-2.409 1.704-4.421 3.973-4.894l0.032-0.006v-0.1c0-0.001 0-0.002 0-0.004 0-1.657 1.343-3 3-3 0.56 0 1.085 0.154 1.534 0.421l-0.014-0.008c0.899-0.889 2.136-1.438 3.5-1.438 2.75 0 4.98 2.23 4.98 4.98 0 0.017-0 0.033-0 0.050l0-0.003c0 0.38-0.040 0.74-0.12 1.1z"></path>
</symbol>
<symbol id="icon-cloud-upload" viewBox="0 0 20 20">
<path d="M16.88 9.1c1.795 0.419 3.111 2.006 3.111 3.9 0 2.206-1.786 3.995-3.991 4h-11c-0.001 0-0.003 0-0.005 0-2.761 0-5-2.239-5-5 0-2.409 1.704-4.421 3.973-4.894l0.032-0.006v-0.1c0-0.001 0-0.002 0-0.004 0-1.657 1.343-3 3-3 0.56 0 1.085 0.154 1.534 0.421l-0.014-0.008c0.899-0.889 2.136-1.438 3.5-1.438 2.75 0 4.98 2.23 4.98 4.98 0 0.017-0 0.033-0 0.050l0-0.003c0 0.38-0.040 0.74-0.12 1.1zM11 11h3l-4-4-4 4h3v3h2v-3z"></path>
</symbol>
<symbol id="icon-code" viewBox="0 0 20 20">
<path d="M0.7 9.3l4.8-4.8 1.4 1.42-4.060 4.080 4.070 4.070-1.41 1.42-5.5-5.49 0.7-0.7zM19.3 10.7l0.7-0.7-5.49-5.49-1.4 1.42 4.050 4.070-4.070 4.070 1.41 1.42 4.78-4.78z"></path>
</symbol>
<symbol id="icon-coffee" viewBox="0 0 20 20">
<path d="M4 11h-2c-1.105 0-2-0.895-2-2v0-4c0-1.1 0.9-2 2-2h2v-2h14v10c0 2.209-1.791 4-4 4v0h-6c-2.209 0-4-1.791-4-4v0zM4 9v-4h-2v4h2zM2 17v-1h18v1l-4 2h-10l-4-2z"></path>
</symbol>
<symbol id="icon-cog" viewBox="0 0 20 20">
<path d="M3.94 6.5l-1.72-2.86 1.42-1.42 2.86 1.72c0.52-0.3 1.1-0.54 1.7-0.7l0.8-3.24h2l0.8 3.24c0.6 0.16 1.18 0.4 1.7 0.7l2.86-1.72 1.42 1.42-1.72 2.86c0.3 0.52 0.54 1.1 0.7 1.7l3.24 0.8v2l-3.24 0.8c-0.16 0.6-0.4 1.18-0.7 1.7l1.72 2.86-1.42 1.42-2.86-1.72c-0.52 0.3-1.1 0.54-1.7 0.7l-0.8 3.24h-2l-0.8-3.24c-0.6-0.16-1.18-0.4-1.7-0.7l-2.86 1.72-1.42-1.42 1.72-2.86c-0.3-0.52-0.54-1.1-0.7-1.7l-3.24-0.8v-2l3.24-0.8c0.16-0.6 0.4-1.18 0.7-1.7zM10 13c1.657 0 3-1.343 3-3s-1.343-3-3-3v0c-1.657 0-3 1.343-3 3s1.343 3 3 3v0z"></path>
</symbol>
<symbol id="icon-color-palette" viewBox="0 0 20 20">
<path d="M9 20v-1.7l0.010-0.24 6.060-6.060h2.94c1.1 0 1.99 0.89 1.99 2v4c0 1.105-0.895 2-2 2v0h-9zM9 16.66v-11.32l2.080-2.070c0.36-0.362 0.859-0.586 1.41-0.586s1.050 0.224 1.41 0.586l2.83 2.83c0.359 0.362 0.582 0.86 0.582 1.41s-0.222 1.048-0.582 1.41l0-0-7.73 7.74zM0 1.99c0-1.090 0.89-1.99 2-1.99h4c1.105 0 2 0.895 2 2v0 16c0 1.105-0.895 2-2 2v0h-4c-1.105 0-2-0.895-2-2v0-16zM4 17c0.552 0 1-0.448 1-1s-0.448-1-1-1v0c-0.552 0-1 0.448-1 1s0.448 1 1 1v0z"></path>
</symbol>
<symbol id="icon-compose" viewBox="0 0 20 20">
<path d="M2 4v14h14v-6l2-2v10h-18v-18h10l-2 2h-6zM12.3 3.7l4 4-8.3 8.3h-4v-4l8.3-8.3zM13.7 2.3l2.3-2.3 4 4-2.3 2.3-4-4z"></path>
</symbol>
<symbol id="icon-computer-desktop" viewBox="0 0 20 20">
<path d="M7 17h-5c-1.105 0-2-0.895-2-2v0-13c0-1.1 0.9-2 2-2h16c1.105 0 2 0.895 2 2v0 13c0 1.105-0.895 2-2 2v0h-5l4 2v1h-14v-1l4-2zM2 2v11h16v-11h-16z"></path>
</symbol>
<symbol id="icon-computer-laptop" viewBox="0 0 20 20">
<path d="M18 16h2v1c0 0.552-0.448 1-1 1v0h-18c-0.552 0-1-0.448-1-1v0-1h2v-12c0-1.1 0.9-2 2-2h12c1.105 0 2 0.895 2 2v0 12zM4 4v9h12v-9h-12zM8 15v1h4v-1h-4z"></path>
</symbol>
<symbol id="icon-conversation" viewBox="0 0 20 20">
<path d="M17 11v3l-3-3h-6c-1.105 0-2-0.895-2-2v0-7c0-1.1 0.9-2 2-2h10c1.105 0 2 0.895 2 2v0 7c0 1.105-0.895 2-2 2v0h-1zM14 13v2c0 1.105-0.895 2-2 2v0h-6l-3 3v-3h-1c-1.105 0-2-0.895-2-2v0-7c0-1.1 0.9-2 2-2h2v3c0 2.209 1.791 4 4 4v0h6z"></path>
</symbol>
<symbol id="icon-copy" viewBox="0 0 20 20">
<path d="M6 6v-4c0-1.1 0.9-2 2-2h10c1.105 0 2 0.895 2 2v0 10c0 1.105-0.895 2-2 2v0h-4v4c0 1.105-0.895 2-2 2v0h-10c-1.105 0-2-0.895-2-2v0-10c0-1.1 0.9-2 2-2h4zM8 6h4c1.105 0 2 0.895 2 2v0 4h4v-10h-10v4zM2 8v10h10v-10h-10z"></path>
</symbol>
<symbol id="icon-credit-card" viewBox="0 0 20 20">
<path d="M18 6v-2h-16v2h16zM18 10h-16v6h16v-6zM0 4c0-1.1 0.9-2 2-2h16c1.105 0 2 0.895 2 2v0 12c0 1.105-0.895 2-2 2v0h-16c-1.105 0-2-0.895-2-2v0-12zM4 12h4v2h-4v-2z"></path>
</symbol>
<symbol id="icon-currency-dollar" viewBox="0 0 20 20">
<path d="M10 20c-5.523 0-10-4.477-10-10s4.477-10 10-10v0c5.523 0 10 4.477 10 10s-4.477 10-10 10v0zM11 15h1c1.657 0 3-1.343 3-3s-1.343-3-3-3v0h-4.010c-0.552 0-1-0.448-1-1s0.448-1 1-1v0h6.010v-2h-3v-2h-2v2h-1c-1.657 0-3 1.343-3 3s1.343 3 3 3v0h4c0.552 0 1 0.448 1 1s-0.448 1-1 1v0h-6v2h3v2h2v-2z"></path>
</symbol>
<symbol id="icon-dashboard" viewBox="0 0 20 20">
<path d="M10 20c-5.523 0-10-4.477-10-10s4.477-10 10-10v0c5.523 0 10 4.477 10 10s-4.477 10-10 10v0zM4.4 15.71c1.568-1.080 3.509-1.725 5.6-1.725s4.032 0.645 5.634 1.747l-0.034-0.022c1.482-1.453 2.4-3.476 2.4-5.713 0-4.418-3.582-8-8-8s-8 3.582-8 8c0 2.237 0.918 4.26 2.399 5.712l0.001 0.001zM10.52 8.070l3.020-3.020 1.41 1.41-3.020 3.020c0.044 0.156 0.069 0.336 0.069 0.521 0 1.105-0.895 2-2 2s-2-0.895-2-2c0-1.105 0.895-2 2-2 0.185 0 0.365 0.025 0.535 0.072l-0.014-0.003z"></path>
</symbol>
<symbol id="icon-date-add" viewBox="0 0 20 20">
<path d="M15 2h2c1.105 0 2 0.895 2 2v0 14c0 1.105-0.895 2-2 2v0h-14c-1.105 0-2-0.895-2-2v0-14c0-1.1 0.9-2 2-2h2v-2h2v2h6v-2h2v2zM3 6v12h14v-12h-14zM9 11v-2h2v2h2v2h-2v2h-2v-2h-2v-2h2z"></path>
</symbol>
<symbol id="icon-dial-pad" viewBox="0 0 20 20">
<path d="M5 4c-1.105 0-2-0.895-2-2s0.895-2 2-2v0c1.105 0 2 0.895 2 2s-0.895 2-2 2v0zM10 4c-1.105 0-2-0.895-2-2s0.895-2 2-2v0c1.105 0 2 0.895 2 2s-0.895 2-2 2v0zM15 4c-1.105 0-2-0.895-2-2s0.895-2 2-2v0c1.105 0 2 0.895 2 2s-0.895 2-2 2v0zM5 9c-1.105 0-2-0.895-2-2s0.895-2 2-2v0c1.105 0 2 0.895 2 2s-0.895 2-2 2v0zM10 9c-1.105 0-2-0.895-2-2s0.895-2 2-2v0c1.105 0 2 0.895 2 2s-0.895 2-2 2v0zM15 9c-1.105 0-2-0.895-2-2s0.895-2 2-2v0c1.105 0 2 0.895 2 2s-0.895 2-2 2v0zM5 14c-1.105 0-2-0.895-2-2s0.895-2 2-2v0c1.105 0 2 0.895 2 2s-0.895 2-2 2v0zM10 14c-1.105 0-2-0.895-2-2s0.895-2 2-2v0c1.105 0 2 0.895 2 2s-0.895 2-2 2v0zM10 20c-1.105 0-2-0.895-2-2s0.895-2 2-2v0c1.105 0 2 0.895 2 2s-0.895 2-2 2v0zM15 14c-1.105 0-2-0.895-2-2s0.895-2 2-2v0c1.105 0 2 0.895 2 2s-0.895 2-2 2v0z"></path>
</symbol>
<symbol id="icon-directions" viewBox="0 0 20 20">
<path d="M10 0l10 10-10 10-10-10 10-10zM6 10v3h2v-3h3v3l4-4-4-4v3h-3c-1.105 0-2 0.895-2 2v0z"></path>
</symbol>
<symbol id="icon-document" viewBox="0 0 20 20">
<path d="M4 18h12v-12h-4v-4h-8v16zM2 19v-19h12l4 4v16h-16v-1z"></path>
</symbol>
<symbol id="icon-document-add" viewBox="0 0 20 20">
<path d="M9 10v-2h2v2h2v2h-2v2h-2v-2h-2v-2h2zM4 18h12v-12h-4v-4h-8v16zM2 19v-19h12l4 4v16h-16v-1z"></path>
</symbol>
<symbol id="icon-dots-horizontal-double" viewBox="0 0 20 20">
<path d="M10 9c-1.105 0-2-0.895-2-2s0.895-2 2-2v0c1.105 0 2 0.895 2 2s-0.895 2-2 2v0zM10 15c-1.105 0-2-0.895-2-2s0.895-2 2-2v0c1.105 0 2 0.895 2 2s-0.895 2-2 2v0z"></path>
</symbol>
<symbol id="icon-dots-horizontal-triple" viewBox="0 0 20 20">
<path d="M10 12c-1.105 0-2-0.895-2-2s0.895-2 2-2v0c1.105 0 2 0.895 2 2s-0.895 2-2 2v0zM10 6c-1.105 0-2-0.895-2-2s0.895-2 2-2v0c1.105 0 2 0.895 2 2s-0.895 2-2 2v0zM10 18c-1.105 0-2-0.895-2-2s0.895-2 2-2v0c1.105 0 2 0.895 2 2s-0.895 2-2 2v0z"></path>
</symbol>
<symbol id="icon-download" viewBox="0 0 20 20">
<path d="M13 8v-6h-6v6h-5l8 8 8-8h-5zM0 18h20v2h-20v-2z"></path>
</symbol>
<symbol id="icon-duplicate" viewBox="0 0 20 20">
<path d="M6 6v-4c0-1.1 0.9-2 2-2h10c1.105 0 2 0.895 2 2v0 10c0 1.105-0.895 2-2 2v0h-4v4c0 1.105-0.895 2-2 2v0h-10c-1.105 0-2-0.895-2-2v0-10c0-1.1 0.9-2 2-2h4zM8 6h4c1.105 0 2 0.895 2 2v0 4h4v-10h-10v4zM2 8v10h10v-10h-10zM6 12v-2h2v2h2v2h-2v2h-2v-2h-2v-2h2z"></path>
</symbol>
<symbol id="icon-edit-copy" viewBox="0 0 20 20">
<path d="M6 6v-4c0-1.1 0.9-2 2-2h10c1.105 0 2 0.895 2 2v0 10c0 1.105-0.895 2-2 2v0h-4v4c0 1.105-0.895 2-2 2v0h-10c-1.105 0-2-0.895-2-2v0-10c0-1.1 0.9-2 2-2h4zM8 6h4c1.105 0 2 0.895 2 2v0 4h4v-10h-10v4zM2 8v10h10v-10h-10z"></path>
</symbol>
<symbol id="icon-edit-crop" viewBox="0 0 20 20">
<path d="M14 16h-8c-1.105 0-2-0.895-2-2v0-8h-4v-2h4v-4h2v14h14v2h-4v4h-2v-4zM14 13v-7h-7v-2h7c1.105 0 2 0.895 2 2v0 7h-2z"></path>
</symbol>
<symbol id="icon-edit-cut" viewBox="0 0 20 20">
<path d="M9.77 11.5l5.34 3.91c0.44 0.33 1.24 0.59 1.79 0.59h3.1l-13.11-9.62c0.072-0.265 0.114-0.57 0.114-0.885 0-1.933-1.567-3.5-3.5-3.5s-3.5 1.567-3.5 3.5c0 1.933 1.567 3.5 3.5 3.5 0.747 0 1.439-0.234 2.008-0.633l-0.011 0.007 2.23 1.63-2.23 1.63c-0.56-0.396-1.256-0.634-2.009-0.634-1.933 0-3.5 1.567-3.5 3.5s1.567 3.5 3.5 3.5c1.933 0 3.5-1.567 3.5-3.5 0-0.311-0.041-0.613-0.117-0.901l0.006 0.024 2.9-2.12zM3.5 7c-0.828 0-1.5-0.672-1.5-1.5s0.672-1.5 1.5-1.5v0c0.828 0 1.5 0.672 1.5 1.5s-0.672 1.5-1.5 1.5v0zM3.5 16c-0.828 0-1.5-0.672-1.5-1.5s0.672-1.5 1.5-1.5v0c0.828 0 1.5 0.672 1.5 1.5s-0.672 1.5-1.5 1.5v0zM15.1 4.59c0.507-0.343 1.126-0.559 1.792-0.59l0.008-0h3.1l-7.5 5.5-2.050-1.5 4.65-3.41z"></path>
</symbol>
<symbol id="icon-edit-pencil" viewBox="0 0 20 20">
<path d="M12.3 3.7l4 4-12.3 12.3h-4v-4l12.3-12.3zM13.7 2.3l2.3-2.3 4 4-2.3 2.3-4-4z"></path>
</symbol>
<symbol id="icon-education" viewBox="0 0 20 20">
<path d="M3.33 8l6.67 4 10-6-10-6-10 6h10v2h-6.67zM0 8v8l2-2.22v-4.58l-2-1.2zM10 20l-7-4.2v-6l7 4.2 7-4.2v6l-7 4.2z"></path>
</symbol>
<symbol id="icon-envelope" viewBox="0 0 20 20">
<path d="M18 2c1.105 0 2 0.895 2 2v0 12c0 1.105-0.895 2-2 2v0h-16c-1.105 0-2-0.895-2-2v0-12c0-1.1 0.9-2 2-2h16zM13.63 11.1l6.37 4.9v-2l-5.12-3.9 5.12-4.1v-2l-10 8-10-8v2l5.12 4.1-5.12 3.9v2l6.37-4.9 3.63 2.9 3.63-2.9z"></path>
</symbol>
<symbol id="icon-exclamation-outline" viewBox="0 0 20 20">
<path d="M2.93 17.070c-1.884-1.821-3.053-4.37-3.053-7.193 0-5.523 4.477-10 10-10 2.823 0 5.372 1.169 7.19 3.050l0.003 0.003c1.737 1.796 2.807 4.247 2.807 6.947 0 5.523-4.477 10-10 10-2.7 0-5.151-1.070-6.95-2.81l0.003 0.003zM15.66 15.66c1.449-1.449 2.344-3.45 2.344-5.66 0-4.421-3.584-8.004-8.004-8.004-2.21 0-4.211 0.896-5.66 2.344v0c-1.449 1.449-2.344 3.45-2.344 5.66 0 4.421 3.584 8.004 8.004 8.004 2.21 0 4.211-0.896 5.66-2.344v0zM9 5h2v6h-2v-6zM9 13h2v2h-2v-2z"></path>
</symbol>
<symbol id="icon-exclamation-solid" viewBox="0 0 20 20">
<path d="M2.93 17.070c-1.884-1.821-3.053-4.37-3.053-7.193 0-5.523 4.477-10 10-10 2.823 0 5.372 1.169 7.19 3.050l0.003 0.003c1.737 1.796 2.807 4.247 2.807 6.947 0 5.523-4.477 10-10 10-2.7 0-5.151-1.070-6.95-2.81l0.003 0.003zM9 5v6h2v-6h-2zM9 13v2h2v-2h-2z"></path>
</symbol>
<symbol id="icon-explore" viewBox="0 0 20 20">
<path d="M10 20c-5.523 0-10-4.477-10-10s4.477-10 10-10v0c5.523 0 10 4.477 10 10s-4.477 10-10 10v0zM7.88 7.88l-3.54 7.78 7.78-3.54 3.54-7.78-7.78 3.54zM10 11c-0.552 0-1-0.448-1-1s0.448-1 1-1v0c0.552 0 1 0.448 1 1s-0.448 1-1 1v0z"></path>
</symbol>
<symbol id="icon-factory" viewBox="0 0 20 20">
<path d="M10.5 20h-10.5v-13l5 3.33v-3.33l5 3.33v-3.33l5 3.33v-10.33h5v20h-9.5z"></path>
</symbol>
<symbol id="icon-fast-forward" viewBox="0 0 20 20">
<path d="M1 5l9 5-9 5v-10zM10 5l9 5-9 5v-10z"></path>
</symbol>
<symbol id="icon-fast-rewind" viewBox="0 0 20 20">
<path d="M19 5v10l-9-5 9-5zM10 5v10l-9-5 9-5z"></path>
</symbol>
<symbol id="icon-film" viewBox="0 0 20 20">
<path d="M0 4c0-1.1 0.9-2 2-2h16c1.105 0 2 0.895 2 2v0 12c0 1.105-0.895 2-2 2v0h-16c-1.105 0-2-0.895-2-2v0-12zM6 4v12h8v-12h-8zM2 5v2h2v-2h-2zM2 9v2h2v-2h-2zM2 13v2h2v-2h-2zM16 5v2h2v-2h-2zM16 9v2h2v-2h-2zM16 13v2h2v-2h-2zM8 7l5 3-5 3v-6z"></path>
</symbol>
<symbol id="icon-filter" viewBox="0 0 20 20">
<path d="M12 12l8-8v-4h-20v4l8 8v8l4-4v-4z"></path>
</symbol>
<symbol id="icon-flag" viewBox="0 0 20 20">
<path d="M7.667 12h-5.667v8h-2v-20h12l0.333 2h7.667l-3 6 3 6h-12l-0.333-2z"></path>
</symbol>
</defs>
</svg>
